<svg height="1000pt" preserveAspectRatio="xMidYMid meet" viewBox="0 0 1000 1000" width="1000pt" xmlns="http://www.w3.org/2000/svg"><g transform="matrix(.1 0 0 -.1 0 1000)"><path d="m2815 7423c-141-33-251-115-315-234-130-245-19-537 245-639l60-24 580-2c638-3 644-2 757 58 71 38 152 123 185 195 27 58 53 173 48 206-2 12-6 44-9 72-5 52-60 173-98 215-68 74-169 133-260 150-50 10-1153 12-1193 3z"/><path d="m5960 7416c-170-47-302-186-335-353-7-35-8-161-1-171 3-5 7-21 10-37 9-46 53-129 96-178 48-54 113-99 189-129 55-22 63-22 641-23 454-2 598 1 642 11 143 34 263 142 317 288 90 242-58 523-310 590-74 20-1179 22-1249 2z"/><path d="m2437 6124c-1-1-20-4-43-7-137-19-276-121-335-247-37-79-48-130-45-214 6-167 93-309 235-385 110-58 83-57 1201-56 995 2 1027 3 1086 22 222 73 353 294 307 519-19 97-61 174-131 242-41 40-141 96-202 113-34 9-291 12-1058 13-558 1-1014 0-1015 0z"/><path d="m5675 6122c-187-19-352-160-399-343-11-42-13-172-4-209 46-180 196-322 368-347 70-11 1971-10 1987 0 7 5 22 10 32 12 80 15 205 113 255 198 134 227 53 521-175 638-107 54-69 52-1089 53-520 1-958 0-975-2z"/><path d="m1915 4765c-163-39-277-142-329-296-21-62-25-89-22-169 1-52 7-104 13-115s21-42 34-68c48-101 142-183 258-223 66-23 66-23 637-24 392 0 589 3 625 11 193 41 341 215 353 415 5 84-8 147-49 230-60 123-192 222-324 243-85 13-1138 10-1196-4z"/><path d="m4140 4768c-25-5-49-14-54-19-6-5-16-9-23-9-22 0-95-51-145-102-80-80-126-193-126-307 0-127 42-233 128-321 57-59 121-96 206-120 65-19 105-20 879-19 866 0 852 0 962 51 71 33 168 133 204 213 80 176 47 365-89 507-61 64-147 112-231 128-71 13-1649 12-1711-2z"/><path d="m6858 4764c-82-19-151-57-212-117-248-243-151-647 182-757 53-18 95-19 632-20 619 0 640 1 734 53 147 80 236 229 237 397 1 213-150 403-354 445-87 18-1141 17-1219-1z"/><path d="m4511 3467c-116-14-241-88-307-183-98-139-113-304-40-459 55-118 155-203 281-241 54-16 111-18 543-19 335 0 501 3 541 11 84 17 157 58 223 125 246 245 137 657-199 755-50 15-118 17-518 18-253 1-489-3-524-7z"/><path d="m1476 3459c-152-36-295-174-335-324-59-225 63-460 284-546l60-23 598-1c329-1 619 2 645 7 165 30 316 177 353 343 53 241-92 476-336 541-39 11-174 14-640 13-324-1-608-5-629-10z"/><path d="m7267 3459c-140-33-274-153-322-288-43-122-30-274 32-380 56-96 167-182 273-212 53-15 1190-22 1269-7 79 14 184 72 239 132 198 217 157 539-88 696-108 70-98 69-765 68-330 0-617-4-638-9z"/></g></svg>