<svg xmlns="http://www.w3.org/2000/svg" width="32" height="32" viewBox="0 0 32 32" fill="none">
  <g filter="url(#filter0_i_2942_1229)">
    <rect width="32" height="32" rx="10" fill="url(#paint0_linear_2942_1229)"/>
    <rect width="32" height="32" rx="10" fill="white" fill-opacity="0.07" style="mix-blend-mode:plus-lighter"/>
  </g>
  <g filter="url(#filter1_ii_2942_1229)">
    <rect x="1.75" y="1.75" width="28.5" height="28.5" rx="8" fill="url(#paint1_linear_2942_1229)"/>
  </g>
  <path d="M21.524 8.8489C21.9357 8.84115 22.2757 9.16862 22.2835 9.58033C22.3104 11.0111 22.3592 12.4355 22.4277 13.8639C22.4474 14.2752 22.1299 14.6246 21.7186 14.6443C21.3073 14.664 20.9579 14.3466 20.9382 13.9353C20.8691 12.4933 20.8198 11.0544 20.7926 9.60841C20.7848 9.1967 21.1123 8.85665 21.524 8.8489Z" fill="#141414"/>
  <path d="M21.524 8.8489C21.9357 8.84115 22.2757 9.16862 22.2835 9.58033C22.3104 11.0111 22.3592 12.4355 22.4277 13.8639C22.4474 14.2752 22.1299 14.6246 21.7186 14.6443C21.3073 14.664 20.9579 14.3466 20.9382 13.9353C20.8691 12.4933 20.8198 11.0544 20.7926 9.60841C20.7848 9.1967 21.1123 8.85665 21.524 8.8489Z" fill="url(#paint2_linear_2942_1229)"/>
  <path d="M15.4203 9.51724C15.6565 9.17999 15.5747 8.71506 15.2375 8.47877C14.9002 8.24249 14.4353 8.32434 14.199 8.66158C13.5874 9.53452 12.935 10.3942 12.2667 11.2747C12.0113 11.6113 11.7536 11.951 11.4949 12.2955C11.4948 12.2256 11.4945 12.1549 11.494 12.0833C11.4899 11.4759 11.4682 10.827 11.3511 10.1757C11.2781 9.77047 10.8905 9.50105 10.4852 9.57398C10.0799 9.64691 9.8105 10.0346 9.88343 10.4398C9.97721 10.9609 9.99884 11.5056 10.0029 12.0935C10.0039 12.2387 10.0037 12.3886 10.0036 12.5417C10.0032 12.9877 10.0028 13.4604 10.0303 13.919C10.0365 14.0218 10.0632 14.1185 10.1062 14.2053C9.39275 15.2317 8.72212 16.2913 8.16155 17.3909C8.15394 17.4058 8.14271 17.427 8.12867 17.4534C8.04301 17.6148 7.85275 17.9733 7.74077 18.3186C7.67701 18.5151 7.60594 18.7988 7.63944 19.0917C7.65733 19.2481 7.70803 19.4336 7.8297 19.6082C7.95607 19.7894 8.13073 19.9179 8.32815 19.9925C9.5403 20.4508 10.8812 20.4975 12.1498 20.4009C13.1799 20.3225 14.2197 20.1434 15.1461 19.9837C15.358 19.9472 15.5639 19.9117 15.7625 19.8787C16.1687 19.8111 16.4432 19.4271 16.3756 19.0209C16.3081 18.6147 15.924 18.3402 15.5178 18.4077C15.3021 18.4436 15.0842 18.4811 14.8647 18.5189C13.9419 18.6776 12.9891 18.8415 12.0367 18.914C10.998 18.9931 10.0276 18.956 9.18383 18.7076C9.25117 18.5246 9.34702 18.3419 9.42851 18.1866C9.45032 18.145 9.47115 18.1053 9.49008 18.0682C10.2409 16.5954 11.2184 15.1729 12.268 13.7535C12.6447 13.2441 13.035 12.7296 13.4266 12.2134C14.1092 11.3136 14.7956 10.4088 15.4203 9.51724Z" fill="#141414"/>
  <path d="M15.4203 9.51724C15.6565 9.17999 15.5747 8.71506 15.2375 8.47877C14.9002 8.24249 14.4353 8.32434 14.199 8.66158C13.5874 9.53452 12.935 10.3942 12.2667 11.2747C12.0113 11.6113 11.7536 11.951 11.4949 12.2955C11.4948 12.2256 11.4945 12.1549 11.494 12.0833C11.4899 11.4759 11.4682 10.827 11.3511 10.1757C11.2781 9.77047 10.8905 9.50105 10.4852 9.57398C10.0799 9.64691 9.8105 10.0346 9.88343 10.4398C9.97721 10.9609 9.99884 11.5056 10.0029 12.0935C10.0039 12.2387 10.0037 12.3886 10.0036 12.5417C10.0032 12.9877 10.0028 13.4604 10.0303 13.919C10.0365 14.0218 10.0632 14.1185 10.1062 14.2053C9.39275 15.2317 8.72212 16.2913 8.16155 17.3909C8.15394 17.4058 8.14271 17.427 8.12867 17.4534C8.04301 17.6148 7.85275 17.9733 7.74077 18.3186C7.67701 18.5151 7.60594 18.7988 7.63944 19.0917C7.65733 19.2481 7.70803 19.4336 7.8297 19.6082C7.95607 19.7894 8.13073 19.9179 8.32815 19.9925C9.5403 20.4508 10.8812 20.4975 12.1498 20.4009C13.1799 20.3225 14.2197 20.1434 15.1461 19.9837C15.358 19.9472 15.5639 19.9117 15.7625 19.8787C16.1687 19.8111 16.4432 19.4271 16.3756 19.0209C16.3081 18.6147 15.924 18.3402 15.5178 18.4077C15.3021 18.4436 15.0842 18.4811 14.8647 18.5189C13.9419 18.6776 12.9891 18.8415 12.0367 18.914C10.998 18.9931 10.0276 18.956 9.18383 18.7076C9.25117 18.5246 9.34702 18.3419 9.42851 18.1866C9.45032 18.145 9.47115 18.1053 9.49008 18.0682C10.2409 16.5954 11.2184 15.1729 12.268 13.7535C12.6447 13.2441 13.035 12.7296 13.4266 12.2134C14.1092 11.3136 14.7956 10.4088 15.4203 9.51724Z" fill="url(#paint3_linear_2942_1229)"/>
  <path d="M21.5709 21.534C21.6983 21.1424 21.484 20.7217 21.0924 20.5944C20.7008 20.467 20.2801 20.6813 20.1528 21.0729C19.9756 21.6179 19.7424 22.0319 19.4518 22.3169C19.1738 22.5896 18.8105 22.7774 18.2938 22.8258C17.5241 22.898 16.7434 22.5737 16.4029 22.0103C16.1898 21.6579 15.7315 21.545 15.3791 21.758C15.0267 21.971 14.9137 22.4294 15.1267 22.7818C15.8398 23.9614 17.2577 24.4207 18.4329 24.3105C19.2796 24.2311 19.9656 23.9017 20.496 23.3815C21.0138 22.8737 21.3481 22.2193 21.5709 21.534Z" fill="#141414"/>
  <path d="M21.5709 21.534C21.6983 21.1424 21.484 20.7217 21.0924 20.5944C20.7008 20.467 20.2801 20.6813 20.1528 21.0729C19.9756 21.6179 19.7424 22.0319 19.4518 22.3169C19.1738 22.5896 18.8105 22.7774 18.2938 22.8258C17.5241 22.898 16.7434 22.5737 16.4029 22.0103C16.1898 21.6579 15.7315 21.545 15.3791 21.758C15.0267 21.971 14.9137 22.4294 15.1267 22.7818C15.8398 23.9614 17.2577 24.4207 18.4329 24.3105C19.2796 24.2311 19.9656 23.9017 20.496 23.3815C21.0138 22.8737 21.3481 22.2193 21.5709 21.534Z" fill="url(#paint4_linear_2942_1229)"/>
  <defs>
    <filter id="filter0_i_2942_1229" x="0" y="0" width="32" height="32" filterUnits="userSpaceOnUse" color-interpolation-filters="sRGB">
      <feFlood flood-opacity="0" result="BackgroundImageFix"/>
      <feBlend mode="normal" in="SourceGraphic" in2="BackgroundImageFix" result="shape"/>
      <feColorMatrix in="SourceAlpha" type="matrix" values="0 0 0 0 0 0 0 0 0 0 0 0 0 0 0 0 0 0 127 0" result="hardAlpha"/>
      <feOffset/>
      <feGaussianBlur stdDeviation="0.49869"/>
      <feComposite in2="hardAlpha" operator="arithmetic" k2="-1" k3="1"/>
      <feColorMatrix type="matrix" values="0 0 0 0 0 0 0 0 0 0 0 0 0 0 0 0 0 0 0.1 0"/>
      <feBlend mode="normal" in2="shape" result="effect1_innerShadow_2942_1229"/>
    </filter>
    <filter id="filter1_ii_2942_1229" x="1.75" y="0.75" width="28.5" height="30.5" filterUnits="userSpaceOnUse" color-interpolation-filters="sRGB">
      <feFlood flood-opacity="0" result="BackgroundImageFix"/>
      <feBlend mode="normal" in="SourceGraphic" in2="BackgroundImageFix" result="shape"/>
      <feColorMatrix in="SourceAlpha" type="matrix" values="0 0 0 0 0 0 0 0 0 0 0 0 0 0 0 0 0 0 127 0" result="hardAlpha"/>
      <feOffset dy="-1"/>
      <feGaussianBlur stdDeviation="1"/>
      <feComposite in2="hardAlpha" operator="arithmetic" k2="-1" k3="1"/>
      <feColorMatrix type="matrix" values="0 0 0 0 0.980392 0 0 0 0 0.309804 0 0 0 0 0.67451 0 0 0 0.2 0"/>
      <feBlend mode="normal" in2="shape" result="effect1_innerShadow_2942_1229"/>
      <feColorMatrix in="SourceAlpha" type="matrix" values="0 0 0 0 0 0 0 0 0 0 0 0 0 0 0 0 0 0 127 0" result="hardAlpha"/>
      <feOffset dy="1"/>
      <feGaussianBlur stdDeviation="1"/>
      <feComposite in2="hardAlpha" operator="arithmetic" k2="-1" k3="1"/>
      <feColorMatrix type="matrix" values="0 0 0 0 0.2 0 0 0 0 0.835294 0 0 0 0 1 0 0 0 0.15 0"/>
      <feBlend mode="normal" in2="effect1_innerShadow_2942_1229" result="effect2_innerShadow_2942_1229"/>
    </filter>
    <linearGradient id="paint0_linear_2942_1229" x1="16" y1="0" x2="16" y2="32" gradientUnits="userSpaceOnUse">
      <stop stop-color="#22CCEE"/>
      <stop offset="0.274483" stop-color="#1570EF"/>
      <stop offset="0.629793" stop-color="#6927DA"/>
      <stop offset="1" stop-color="#F23E94"/>
    </linearGradient>
    <linearGradient id="paint1_linear_2942_1229" x1="16" y1="10.6562" x2="16" y2="30.25" gradientUnits="userSpaceOnUse">
      <stop stop-color="#171717"/>
      <stop offset="0.3" stop-color="#0B0B0B"/>
    </linearGradient>
    <linearGradient id="paint2_linear_2942_1229" x1="17.8739" y1="7.84186" x2="13.7328" y2="23.2967" gradientUnits="userSpaceOnUse">
      <stop stop-color="#22CCEE"/>
      <stop offset="0.274483" stop-color="#1570EF"/>
      <stop offset="0.629793" stop-color="#6927DA"/>
      <stop offset="1" stop-color="#F23E94"/>
    </linearGradient>
    <linearGradient id="paint3_linear_2942_1229" x1="17.8739" y1="7.84186" x2="13.7328" y2="23.2967" gradientUnits="userSpaceOnUse">
      <stop stop-color="#22CCEE"/>
      <stop offset="0.274483" stop-color="#1570EF"/>
      <stop offset="0.629793" stop-color="#6927DA"/>
      <stop offset="1" stop-color="#F23E94"/>
    </linearGradient>
    <linearGradient id="paint4_linear_2942_1229" x1="17.8739" y1="7.84186" x2="13.7328" y2="23.2967" gradientUnits="userSpaceOnUse">
      <stop stop-color="#22CCEE"/>
      <stop offset="0.274483" stop-color="#1570EF"/>
      <stop offset="0.629793" stop-color="#6927DA"/>
      <stop offset="1" stop-color="#F23E94"/>
    </linearGradient>
  </defs>
</svg>