<svg width="25" height="24" viewBox="0 0 25 24" fill="none" xmlns="http://www.w3.org/2000/svg">
<path d="M17.25 9.00147V7.00147C17.25 6.47103 17.0393 5.96232 16.6642 5.58725C16.2891 5.21218 15.7804 5.00146 15.25 5.00146H5.25C4.71957 5.00146 4.21086 5.21218 3.83579 5.58725C3.46071 5.96232 3.25 6.47103 3.25 7.00147V13.0015C3.25 13.5319 3.46071 14.0406 3.83579 14.4157C4.21086 14.7908 4.71957 15.0015 5.25 15.0015H7.25M9.25 19.0015H19.25C19.7804 19.0015 20.2891 18.7908 20.6642 18.4157C21.0393 18.0406 21.25 17.5319 21.25 17.0015V11.0015C21.25 10.471 21.0393 9.96233 20.6642 9.58725C20.2891 9.21218 19.7804 9.00147 19.25 9.00147H9.25C8.71957 9.00147 8.21086 9.21218 7.83579 9.58725C7.46071 9.96233 7.25 10.471 7.25 11.0015V17.0015C7.25 17.5319 7.46071 18.0406 7.83579 18.4157C8.21086 18.7908 8.71957 19.0015 9.25 19.0015ZM16.25 14.0015C16.25 14.5319 16.0393 15.0406 15.6642 15.4157C15.2891 15.7908 14.7804 16.0015 14.25 16.0015C13.7196 16.0015 13.2109 15.7908 12.8358 15.4157C12.4607 15.0406 12.25 14.5319 12.25 14.0015C12.25 13.471 12.4607 12.9623 12.8358 12.5873C13.2109 12.2122 13.7196 12.0015 14.25 12.0015C14.7804 12.0015 15.2891 12.2122 15.6642 12.5873C16.0393 12.9623 16.25 13.471 16.25 14.0015Z" stroke-width="2" stroke-linecap="round" stroke-linejoin="round"/>
</svg>
