<svg width="21" height="20" fill="none" xmlns="http://www.w3.org/2000/svg">
  <rect x=".92" y=".75" width="18.5" height="18.5" rx="5.25" stroke="currentColor" stroke-width="1.5"/>
  <path d="M13.33 5.78c.26 0 .47.2.48.46.01.9.04 1.78.09 2.68a.47.47 0 0 1-.93.04c-.05-.9-.08-1.8-.1-2.7 0-.26.2-.47.46-.48Zm-3.81.42a.47.47 0 1 0-.77-.54 53.65 53.65 0 0 1-1.69 2.28V7.8c0-.38-.01-.78-.09-1.19a.47.47 0 0 0-.91.17 6.08 6.08 0 0 1 .07 1.3c0 .29 0 .58.02.87 0 .06.02.12.05.18-.45.64-.87 1.3-1.22 1.99l-.02.04c-.05.1-.17.32-.24.54-.04.12-.09.3-.07.48.02.1.05.22.12.33.08.1.2.19.31.24.76.28 1.6.31 2.4.25.64-.05 1.29-.16 1.87-.26l.38-.06a.47.47 0 0 0-.15-.92l-.41.07c-.58.1-1.17.2-1.77.24a4.9 4.9 0 0 1-1.78-.13 7.6 7.6 0 0 0 .2-.4 19.6 19.6 0 0 1 1.73-2.7l.72-.96c.43-.56.86-1.12 1.25-1.68Zm3.84 7.51a.47.47 0 0 0-.89-.29c-.1.34-.25.6-.43.78-.18.17-.4.29-.73.32-.48.04-.97-.16-1.18-.51a.47.47 0 1 0-.8.48c.45.74 1.34 1.02 2.07.96.53-.05.96-.26 1.29-.59.32-.31.53-.72.67-1.15Z" fill="currentColor"/>
  <path d="M13.33 5.78c.26 0 .47.2.48.46.01.9.04 1.78.09 2.68a.47.47 0 0 1-.93.04c-.05-.9-.08-1.8-.1-2.7 0-.26.2-.47.46-.48Z" stroke="currentColor" stroke-width=".3" stroke-linecap="round"/>
  <path d="M13.33 5.78c.26 0 .47.2.48.46.01.9.04 1.78.09 2.68a.47.47 0 0 1-.93.04c-.05-.9-.08-1.8-.1-2.7 0-.26.2-.47.46-.48Z" stroke="currentColor" stroke-width=".3" stroke-linecap="round"/>
  <path d="M9.52 6.2a.47.47 0 1 0-.77-.54 53.65 53.65 0 0 1-1.69 2.28V7.8c0-.38-.01-.78-.09-1.19a.47.47 0 0 0-.91.17 6.08 6.08 0 0 1 .07 1.3c0 .29 0 .58.02.87 0 .06.02.12.05.18-.45.64-.87 1.3-1.22 1.99l-.02.04c-.05.1-.17.32-.24.54-.04.12-.09.3-.07.48.02.1.05.22.12.33.08.1.2.19.31.24.76.28 1.6.31 2.4.25.64-.05 1.29-.16 1.87-.26l.38-.06a.47.47 0 0 0-.15-.92l-.41.07c-.58.1-1.17.2-1.77.24a4.9 4.9 0 0 1-1.78-.13 7.6 7.6 0 0 0 .2-.4 19.6 19.6 0 0 1 1.73-2.7l.72-.96c.43-.56.86-1.12 1.25-1.68Z" stroke="currentColor" stroke-width=".3" stroke-linecap="round"/>
  <path d="M9.52 6.2a.47.47 0 1 0-.77-.54 53.65 53.65 0 0 1-1.69 2.28V7.8c0-.38-.01-.78-.09-1.19a.47.47 0 0 0-.91.17 6.08 6.08 0 0 1 .07 1.3c0 .29 0 .58.02.87 0 .06.02.12.05.18-.45.64-.87 1.3-1.22 1.99l-.02.04c-.05.1-.17.32-.24.54-.04.12-.09.3-.07.48.02.1.05.22.12.33.08.1.2.19.31.24.76.28 1.6.31 2.4.25.64-.05 1.29-.16 1.87-.26l.38-.06a.47.47 0 0 0-.15-.92l-.41.07c-.58.1-1.17.2-1.77.24a4.9 4.9 0 0 1-1.78-.13 7.6 7.6 0 0 0 .2-.4 19.6 19.6 0 0 1 1.73-2.7l.72-.96c.43-.56.86-1.12 1.25-1.68Z" stroke="currentColor" stroke-width=".3" stroke-linecap="round"/>
  <path d="M13.36 13.71a.47.47 0 0 0-.89-.29c-.1.34-.25.6-.43.78-.18.17-.4.29-.73.32-.48.04-.97-.16-1.18-.51a.47.47 0 1 0-.8.48c.45.74 1.34 1.02 2.07.96.53-.05.96-.26 1.29-.59.32-.31.53-.72.67-1.15Z" stroke="currentColor" stroke-width=".3" stroke-linecap="round"/>
  <path d="M13.36 13.71a.47.47 0 0 0-.89-.29c-.1.34-.25.6-.43.78-.18.17-.4.29-.73.32-.48.04-.97-.16-1.18-.51a.47.47 0 1 0-.8.48c.45.74 1.34 1.02 2.07.96.53-.05.96-.26 1.29-.59.32-.31.53-.72.67-1.15Z" stroke="currentColor" stroke-width=".3" stroke-linecap="round"/>
</svg>