<svg width="20" height="20" viewBox="0 0 20 20" fill="none" xmlns="http://www.w3.org/2000/svg">
<path fill-rule="evenodd" clip-rule="evenodd" d="M9.70679 16.7069C9.51926 16.8944 9.26495 16.9997 8.99979 16.9997C8.73462 16.9997 8.48031 16.8944 8.29279 16.7069L2.29279 10.7069C2.10532 10.5194 2 10.2651 2 9.99992C2 9.73475 2.10532 9.48045 2.29279 9.29292L8.29279 3.29292C8.48139 3.11076 8.73399 3.00997 8.99619 3.01224C9.25838 3.01452 9.5092 3.11969 9.6946 3.3051C9.88001 3.49051 9.98518 3.74132 9.98746 4.00352C9.98974 4.26571 9.88894 4.51832 9.70679 4.70692L5.41379 8.99992H16.9998C17.265 8.99992 17.5194 9.10528 17.7069 9.29281C17.8944 9.48035 17.9998 9.7347 17.9998 9.99992C17.9998 10.2651 17.8944 10.5195 17.7069 10.707C17.5194 10.8946 17.265 10.9999 16.9998 10.9999H5.41379L9.70679 15.2929C9.89426 15.4804 9.99957 15.7348 9.99957 15.9999C9.99957 16.2651 9.89426 16.5194 9.70679 16.7069Z"/>
</svg>
