<svg width="944" height="201" viewBox="0 0 944 201" fill="none" xmlns="http://www.w3.org/2000/svg">
<path d="M0 56.5502L14.4845 52.101L28.9689 50.1276L43.4534 51.7926L57.9379 40.2042L72.4224 35.6995L86.9068 35.0612L101.391 51.2218L115.876 73.6398L130.36 65.7562L144.845 64.7572L159.329 78.5795L173.814 81.9833L188.298 71.3186L202.783 80.5112L217.267 86L231.752 84.5697L246.236 83.0772L260.721 78.4002L275.205 77.343L289.689 71.8152L304.174 52.25L318.658 51.5349L333.143 48.185L347.627 47.2522L362.112 45.4586L376.596 49.2356L391.081 47.5566L405.565 31.0549L420.05 28.5641L434.534 36.6352H449.019L463.503 42.7572L477.988 37.7564L492.472 42.3467L506.957 49.3852L521.441 59.4839L535.925 52.7514L550.41 47.1535L564.894 58.6703L579.379 49.8343L593.863 50.5123H608.348L622.832 54.192L637.317 58.4763L651.801 57.2522L666.286 59.3943L677.01 62.8533L688.553 59.3943L709.129 67.4827L724.224 60.8386L738.708 52.27L753.193 58.6965L767.677 37.887L782.162 28.3178L796.646 16.383L811.13 20.9733L825.615 10.2626L840.099 11.7927L854.584 6.59032L869.068 15.771L883.553 8.12043L898.037 6.59032L912.522 2L927.006 14.8529L944 15.771" stroke="#0B0B0B" stroke-opacity="0.25" stroke-width="2" stroke-miterlimit="16"/>
<path d="M14.4845 52.5538L0 57.0432V201H944V15.8954L927.006 14.9691L912.522 2L898.037 6.63181L883.553 8.17575L869.068 15.8954L854.584 6.63181L840.099 11.8812L825.615 10.3373L811.13 21.1448L796.646 16.513L782.161 28.5557L767.677 38.2114L753.193 59.2089L738.708 52.7244L724.224 61.3704L709.129 68.0745L688.553 59.9131L677.01 63.4034L666.286 59.9131L651.801 57.7516L637.317 58.9868L622.832 54.6637L608.348 50.9508H593.863L579.379 50.2667L564.894 59.1826L550.41 47.5616L535.925 53.2102L521.441 60.0035L506.957 49.8135L492.472 42.7114L477.988 38.0796L463.503 43.1256L449.019 36.9483H434.534L420.05 28.8042L405.565 31.3175L391.081 47.9684L376.596 49.6626L362.112 45.8514L347.627 47.6612L333.143 48.6024L318.658 51.9826L304.174 52.7042L289.689 72.4463L275.205 78.024L260.721 79.0908L246.236 83.8101L231.752 85.3161L217.267 86.7593L202.783 81.2209L188.298 71.9451L173.814 82.7063L159.329 79.2716L144.845 65.3245L130.36 66.3325L115.876 74.2874L101.391 51.6667L86.9068 35.3601L72.4224 36.0041L57.9379 40.5496L43.4534 52.2427L28.9689 50.5627L14.4845 52.5538Z" fill="url(#paint0_linear_4023_1299)" fill-opacity="0.5"/>
<defs>
<linearGradient id="paint0_linear_4023_1299" x1="445.5" y1="174.496" x2="445.5" y2="51.9672" gradientUnits="userSpaceOnUse">
<stop stop-color="white"/>
<stop offset="1" stop-color="#E5E5E5" stop-opacity="0.6"/>
</linearGradient>
</defs>
</svg>
