<?xml version="1.0" encoding="UTF-8" standalone="no"?>
<!-- Created with Inkscape (http://www.inkscape.org/) -->
<svg xmlns:dc="http://purl.org/dc/elements/1.1/" xmlns:cc="http://creativecommons.org/ns#" xmlns:rdf="http://www.w3.org/1999/02/22-rdf-syntax-ns#" xmlns:svg="http://www.w3.org/2000/svg" xmlns="http://www.w3.org/2000/svg" xmlns:sodipodi="http://sodipodi.sourceforge.net/DTD/sodipodi-0.dtd" xmlns:inkscape="http://www.inkscape.org/namespaces/inkscape" width="400.80807" height="400.80807" id="svg2" version="1.1" inkscape:version="0.48.2 r9819" sodipodi:docname="logo.svg">
  <defs id="defs4"/>
  <sodipodi:namedview id="base" pagecolor="#ffffff" bordercolor="#666666" borderopacity="1.0" inkscape:pageopacity="0.0" inkscape:pageshadow="2" inkscape:zoom="0.62207031" inkscape:cx="197.68398" inkscape:cy="290.62177" inkscape:document-units="px" inkscape:current-layer="layer1" showgrid="false" inkscape:window-width="1024" inkscape:window-height="576" inkscape:window-x="0" inkscape:window-y="24" inkscape:window-maximized="1" fit-margin-top="0" fit-margin-left="0" fit-margin-right="0" fit-margin-bottom="0"/>
  <metadata id="metadata7">
    <rdf:RDF>
      <cc:Work rdf:about="">
        <dc:format>image/svg+xml</dc:format>
        <dc:type rdf:resource="http://purl.org/dc/dcmitype/StillImage"/>
      </cc:Work>
    </rdf:RDF>
  </metadata>
  <g inkscape:label="Layer 1" inkscape:groupmode="layer" id="layer1" transform="translate(-177.31602,-357.87447)">
    <path sodipodi:type="arc" style="fill:#0088cc;fill-opacity:1;stroke:none" id="path2985" sodipodi:cx="377.72006" sodipodi:cy="558.2785" sodipodi:rx="200.40404" sodipodi:ry="200.40404" d="m 578.1241,558.2785 c 0,110.6801 -89.72394,200.40404 -200.40404,200.40404 -110.68009,0 -200.40404,-89.72394 -200.40404,-200.40404 0,-110.68009 89.72395,-200.40403 200.40404,-200.40403 110.6801,0 200.40404,89.72394 200.40404,200.40403 z"/>
    <text xml:space="preserve" style="font-size:40px;font-style:normal;font-weight:normal;line-height:125%;letter-spacing:0px;word-spacing:0px;fill:#000000;fill-opacity:1;stroke:none;font-family:Bitstream Vera Sans" x="186.47411" y="290.39044" id="text3755" sodipodi:linespacing="125%"><tspan sodipodi:role="line" id="tspan3757" x="186.47411" y="290.39044"/></text>
    <path style="fill:#ffffff;fill-opacity:1;stroke:none" id="path3819" d="m 100.68055,694.58641 c 0.0256,-15.9105 4.28138,-25.42566 9.49711,-44.69868 0.30192,-1.11565 4.39402,-6.26383 4.75355,-6.73525 13.30577,-14.05699 28.57267,-26.1248 43.56848,-38.30905 23.1752,-17.96966 45.98138,-36.39838 68.97695,-54.5954 25.23246,-20.18068 52.55008,-37.43733 80.07791,-54.25699 24.02926,-14.59948 48.48274,-28.48755 73.79172,-40.7464 7.29894,-3.45896 14.76462,-6.54532 22.1955,-9.70506 2.13782,-0.90905 6.59486,-2.947 9.13358,-3.36361 1.11289,-0.18262 2.2555,0.0131 3.38325,0.0196 0.97086,0.474 2.10247,0.70715 2.91256,1.42198 5.23179,4.61656 4.14682,19.28607 4.17295,25.47765 -0.0429,17.13278 -1.19086,34.32706 2.09338,51.2736 0.85727,4.42347 2.12742,8.75684 3.19113,13.13525 8.17884,26.97457 23.05512,51.09447 41.13248,72.5518 4.68272,5.55826 9.72352,10.8047 14.58529,16.20705 22.15552,22.81083 46.99994,42.8901 73.54139,60.3734 15.6998,10.34172 21.17345,13.04105 37.27545,22.05669 25.94586,14.2544 53.60668,24.79598 81.61226,34.15844 9.4481,3.16114 19.06026,5.80112 28.7134,8.25122 0,0 -8.9615,35.08176 -8.9615,35.08176 l 0,0 c -9.4402,-3.49388 -18.91686,-6.89614 -28.25502,-10.6566 -27.90618,-10.83812 -55.26379,-23.14595 -81.04208,-38.4578 -6.02659,-3.63743 -12.13164,-7.1479 -18.07975,-10.91229 -33.27091,-21.05623 -65.21876,-44.55412 -93.46858,-72.05419 -11.61768,-11.90928 -17.59008,-17.35319 -27.7119,-30.25024 -13.11545,-16.71149 -23.69486,-35.48855 -30.60195,-55.5839 -1.24034,-4.24016 -2.71223,-8.41934 -3.72101,-12.72047 -1.33171,-5.67799 -2.85371,-16.92387 -3.18429,-22.87705 -0.49011,-8.82574 0.30564,-17.73296 -0.13881,-26.56601 -0.1268,-5.61386 -0.14836,-11.25684 -0.70054,-16.85134 -0.10881,-1.10239 -0.28124,-2.19764 -0.43665,-3.29443 -0.10468,-0.7387 -0.0771,-1.51484 -0.34356,-2.21171 -0.17399,-0.45501 -0.62162,-0.75022 -0.93243,-1.12533 -4.08701,-0.52433 -6.73984,0.71612 -10.66154,2.03488 -7.29722,2.45385 -14.53575,5.09376 -21.66504,8.00117 -25.15749,11.09007 -49.65159,23.60307 -72.96162,38.23215 -27.38586,17.09947 -54.71739,34.40741 -79.79992,54.82655 -12.10321,9.55121 -23.9872,19.34799 -35.96643,29.05269 -7.45932,6.04299 -15.04899,11.92401 -22.50191,17.97489 -3.57407,2.90171 -7.08245,5.88339 -10.62368,8.82509 -9.03474,7.64273 -17.98702,15.32039 -26.5312,23.51501 -3.95738,3.79547 -8.89784,8.60554 -12.45997,12.89516 -1.43541,1.72856 -2.67492,3.61084 -4.01238,5.41625 -0.79894,1.41715 -1.71062,2.77641 -2.39681,4.25145 -0.52212,1.12236 -1.48943,4.71642 -1.21365,3.50967 13.90676,-60.85124 7.42381,-40.88512 7.81252,-28.05444 0,0 -14.04864,35.48281 -14.04864,35.48281 z" inkscape:connector-curvature="0"/>
  </g>
</svg>