<svg width="20" height="20" viewBox="0 0 20 20" fill="none" xmlns="http://www.w3.org/2000/svg">
<g id="Frame 1321315963">
<rect width="20" height="20" rx="10" fill="#635BFF"/>
<path id="Vector" fill-rule="evenodd" clip-rule="evenodd" d="M9.35663 7.69056C9.35663 7.20077 9.75747 7.01238 10.4214 7.01238C11.3734 7.01238 12.5759 7.30124 13.5279 7.81615V4.86482C12.4882 4.45037 11.461 4.28711 10.4214 4.28711C7.87854 4.28711 6.1875 5.61835 6.1875 7.84127C6.1875 11.3075 10.9475 10.7549 10.9475 12.2494C10.9475 12.8271 10.4464 13.0155 9.74495 13.0155C8.70527 13.0155 7.37749 12.5885 6.32529 12.0108V14.9998C7.49023 15.5022 8.66769 15.7157 9.74495 15.7157C12.3504 15.7157 14.1416 14.4221 14.1416 12.1741C14.1291 8.43154 9.35663 9.09716 9.35663 7.69056Z" fill="white"/>
</g>
</svg>
