<svg width="44" height="20" viewBox="0 0 44 20" fill="none" xmlns="http://www.w3.org/2000/svg">
<path d="M15.4767 1.07812V3.47645H16.0347C16.7389 3.47645 17.0583 3.13978 17.0583 2.19784V2.05031H17.8779V5.77265H17.0583V5.61377C17.0583 4.6794 16.7389 4.32381 16.0347 4.32381H15.4767V7.00586H17.8163C18.8823 7.00586 19.2671 6.3136 19.3941 4.9896H20.2445V7.86079H12.5598V7.00586H13.2102C13.6142 7.00586 13.8297 6.89616 13.8297 6.20389V1.72877C13.8297 1.22943 13.5988 1.07812 13.0562 1.07812H12.8177C12.2597 1.07812 11.9942 1.20673 11.7979 1.77795L10.7377 4.81937L9.6776 7.86079H8.06523L6.83768 3.89635H6.81463L5.45239 7.86079H3.82079L1.61967 1.48667C1.52343 1.17269 1.35799 1.07812 0.911619 1.07812H0.75V0.226972H4.14403V1.07812H3.65148C3.39365 1.07812 3.28975 1.22943 3.28975 1.38075C3.28975 1.49423 3.33211 1.63798 3.39365 1.79686L4.86363 6.05636H4.88668L6.2874 2.05031L6.09115 1.50558C5.97186 1.16512 5.73713 1.07812 5.39464 1.07812H5.11758V0.226972H8.6232V1.07812H8.00366C7.76508 1.07812 7.67272 1.18025 7.67272 1.33157C7.67272 1.44884 7.73045 1.6115 7.76897 1.7212L9.05423 5.98071H9.07728L10.5704 1.81956C10.6166 1.68337 10.6588 1.56989 10.6588 1.42614C10.6588 1.24456 10.5704 1.07812 10.1586 1.07812H9.59289V0.226972H20.2445V2.83715H19.371C19.1939 1.73255 19.0939 1.07812 17.5354 1.07812H15.4767ZM28.2409 7.86079V4.9896H27.3443C27.225 6.30225 26.9826 7.00586 25.7666 7.00586H24.0003V1.60772C24.0003 1.18404 24.1773 1.07812 24.6929 1.07812H25.351V0.226972H21.0603V1.07812H21.7376C22.2071 1.07812 22.3648 1.22943 22.3648 1.57745V6.49518C22.3648 6.89616 22.1416 7.00586 21.8107 7.00586H21.0603V7.86079H28.2409ZM36.2103 7.86079V4.9896H35.3099C35.1906 6.30225 34.9405 7.00586 33.7398 7.00586H31.9697V1.60772C31.9697 1.18404 32.1467 1.07812 32.6624 1.07812H33.3166V0.226972H29.0221V1.07812H29.7032C30.1765 1.07812 30.3343 1.22943 30.3343 1.57745V6.49518C30.3343 6.89616 30.1072 7.00586 29.7801 7.00586H29.0221V7.86079H36.2103ZM42.121 0.801967C42.0479 0.730091 41.3322 0 39.9353 0C38.4692 0 36.9877 0.730093 36.9877 2.2962C36.9877 3.71477 38.1382 4.36164 39.462 4.64157C39.9007 4.73236 40.1624 4.78154 40.5626 4.86476C41.5554 5.07282 42.2172 5.36788 42.2172 6.04501C42.2172 6.55948 41.6631 7.11178 40.5664 7.11178C39.0349 7.11178 38.1267 6.27199 37.9381 4.9896H37.0377V7.86079H37.8342L38.0921 7.17609C38.2806 7.33875 39.0271 8.08776 40.4471 8.08776C42.2557 8.08776 43.6218 7.29714 43.6218 5.73482C43.6218 4.22168 42.3481 3.57102 40.7934 3.26461C40.5164 3.19652 40.2624 3.15491 39.9776 3.0906C39.0118 2.88632 38.3922 2.65179 38.3922 1.97087C38.3922 1.38075 39.0271 0.975978 39.9815 0.975978C41.4168 0.975978 41.971 1.87252 42.2673 2.83715H43.1408V0.226972H42.5097L42.121 0.801967ZM6.47981 19.7617V18.903H5.89489C5.35231 18.903 5.15221 18.7441 5.15221 18.3128V16.2323H5.63323C6.36052 16.2323 6.67606 16.5425 6.67606 17.352V17.6054H7.49187V14.0912H6.67606V14.2425C6.67606 14.8364 6.45671 15.3811 5.70249 15.3811H5.15221V12.9752H6.67991C8.40002 12.9752 8.58087 13.8264 8.69632 14.7305H9.53521V12.1241H2.18532V12.9752H2.96263C3.31281 12.9752 3.50907 13.1303 3.50907 13.4065V18.3393C3.50907 18.6609 3.33205 18.903 2.91645 18.903H2.18532V19.7617H6.47981ZM39.0002 11.8933C36.4528 11.8933 34.7673 13.6448 34.7673 15.941C34.7673 18.2334 36.4528 20 39.0002 20C41.54 20 43.2293 18.2334 43.2293 15.941C43.2293 13.6448 41.54 11.8933 39.0002 11.8933ZM39.0002 12.7936C40.8396 12.7936 41.3899 14.2954 41.3899 15.941C41.3899 17.5865 40.8396 19.0921 39.0002 19.0921C37.1493 19.0921 36.6028 17.5865 36.6028 15.941C36.6028 14.2954 37.1493 12.7936 39.0002 12.7936ZM31.835 12.7483C31.6657 12.6007 30.9384 11.8933 29.5031 11.8933C27.2057 11.8933 25.7627 13.6145 25.7627 15.941C25.7627 18.2864 27.2288 20 29.5031 20C30.9654 20 31.7581 19.3418 31.9389 19.1791L32.3738 19.7617H33.1703V17.1137C33.1703 16.6635 33.3396 16.5425 33.7937 16.5425H34.0092V15.6875H30.4228V16.5425H30.9538C31.3386 16.5425 31.5734 16.7127 31.5734 17.0834V17.5298C31.5734 18.4036 31.0269 19.0127 29.8379 19.0127C28.3486 19.0127 27.6021 17.6962 27.6021 15.941C27.6021 14.2122 28.3486 12.8882 29.7917 12.8882C31.2963 12.8882 31.8081 14.2652 31.9813 14.7305H32.9433V12.1241H32.1236L31.835 12.7483ZM25.374 17.9686V18.1767C25.374 19.4931 24.7353 20 23.7655 20C22.6303 20 22.2494 19.4628 22.2494 18.4225V18.0253C22.2494 16.7127 21.6799 16.1831 20.3792 16.1831H19.7635V18.4906C19.7635 18.7971 19.9059 18.903 20.2445 18.903H21.0988V19.7617H13.341V18.903H14.203C14.4416 18.903 14.5301 18.8462 14.5301 18.71C14.5301 18.6382 14.507 18.5209 14.4608 18.3961C14.4185 18.2939 14.0529 17.3104 14.0529 17.3104H11.2823C11.2823 17.3104 10.9398 18.2183 10.8821 18.3696C10.8435 18.4831 10.8128 18.5776 10.8128 18.6873C10.8128 18.85 10.9513 18.903 11.1822 18.903H12.0057V19.7617H8.35002V18.903C8.96957 18.903 9.36207 18.816 9.58142 18.2826L12.0596 12.1241H13.5488L16.0886 18.2826C16.3002 18.8235 16.7004 18.903 17.32 18.903H17.6355C17.9703 18.903 18.1204 18.7971 18.1204 18.4906V13.3913C18.1204 13.0849 18.0011 12.9752 17.6355 12.9752H16.8197V12.1241H21.9223C23.6155 12.1241 24.4121 12.9109 24.4121 14.1025C24.4121 15.5816 22.9151 15.8729 22.2148 15.9107V15.9296C23.0344 15.9902 23.7271 16.3231 23.7271 17.4995V17.9459C23.7271 18.729 23.8964 18.903 24.1773 18.903C24.4544 18.903 24.6006 18.6873 24.6006 18.1767V17.9686H25.374ZM13.7335 16.463L12.6868 13.6826H12.6522L11.6055 16.463H13.7335ZM22.7804 14.1517C22.7804 13.4821 22.2917 12.9752 21.2065 12.9752H19.7635V15.3319H21.2065C22.2071 15.3319 22.7804 14.8894 22.7804 14.1517Z" fill="url(#paint0_linear_913_37201)"/>
<defs>
<linearGradient id="paint0_linear_913_37201" x1="22.1859" y1="0" x2="22.1859" y2="20" gradientUnits="userSpaceOnUse">
<stop stop-color="#DEE2E6"/>
<stop offset="1" stop-color="#F8F9FA"/>
</linearGradient>
</defs>
</svg>
