<svg viewBox="0 0 1442.61 235.96" xmlns="http://www.w3.org/2000/svg">
    <g fill="#f5f5f7">
        <path
            d="m723.31 106.29v63.45h-44.1v-56.55c0-19.36-8.62-25.88-26.45-25.88-16.68 0-30.87 6.52-30.87 25.88v56.55h-44.09v-56.55c0-19.36-8.63-25.88-26.46-25.88-16.68 0-30.86 6.52-30.86 25.88v56.55h-44.1v-115h44.1v20.26c12.26-15 28.37-24.16 50.61-24.16 20.32 0 38.72 8.44 46.58 29.53 12.85-18 29.91-29.53 54.83-29.53 27.23.04 50.81 15.16 50.81 55.45z" />
        <path
            d="m904.09 110.89v58.85h-44.09v-15.33c-20.52 12.65-45.82 17.25-65.38 17.25-30.1 0-53.1-9.39-53.1-36.62 0-31.44 34.51-39.3 66.14-39.3a260.57 260.57 0 0 1 52.34 5.75c-1.15-15.91-15.53-19.93-35.66-19.93-20.52 0-40.07 2.87-67.29 9.2l-6.14-30.1c24.92-5.56 51.76-9.78 81.67-9.78 48.12 0 71.13 16.12 71.51 60.01zm-44.09 24.35v-8.82c-14.77-2.11-31.06-3.84-45.82-3.84-19.37 0-26.65 2.49-26.65 9.4 0 6.51 5.75 9 22.24 9 13.8.02 37.57-3.64 50.23-5.74z" />
        <path
            d="m1041.35 54.72h44.65l-54 112.15c-16.1 33.36-33.55 52.72-69 52.72-12.65 0-28.75-2.49-43.52-6.71v-33.55c17.07 3.83 29.15 5.75 37 5.75 14.76 0 21.08-1.15 29.14-15.34h-20.76l-55-115h44.67l43.33 90.48z" />
        <path
            d="m1261.63 112.23c0 46.39-33.16 61.35-62.88 61.35-20.9 0-41.6-6.52-53.29-24.35v20.51h-44.1v-153.37h44.1v58.86c11.69-17.83 32.39-24.35 53.29-24.35 29.72 0 62.88 14.96 62.88 61.35zm-46 0c0-16.87-11.69-24.92-35.08-24.92s-35.08 8-35.08 24.92 11.69 24.92 35.08 24.92 35.07-8.05 35.07-24.92z" />
        <path
            d="m1398.51 128.53h43.14c-7.67 28.56-30.87 45.05-79.18 45.05-51.76 0-83.59-20.71-83.59-61.35s33.94-61.35 81.87-61.35c49.27 0 81.86 21.86 81.86 68.63h-119.06c3.07 16.68 17.45 21.49 40.65 21.49 21.66 0 30.48-5 34.31-12.47zm-73.42-30.87h71.91c-5-13.23-17.25-18-36.23-18-18.62-.02-30.89 4.77-35.68 18z" />
    </g>
    <rect fill="#4cc9f0" height="44.02" rx="22.01" width="93.53" x="63.93" />
    <rect fill="#4cc9f0" height="44.02" rx="22.01" width="93.53" x="217.69" />
    <rect fill="#4361ee" height="44.02" rx="22.01" width="137.82" x="42.89" y="63.35" />
    <rect fill="#4361ee" height="44.02" rx="22.01" transform="matrix(-1 0 0 -1 532.83 170.71)"
        width="131.83" x="200.5" y="63.35" />
    <rect fill="#f72585" height="44.02" rx="22.01" width="95.32" y="191.95" />
    <rect fill="#f72585" height="44.02" rx="22.01" transform="matrix(-1 0 0 -1 656.82 427.91)"
        width="95.32" x="280.75" y="191.95" />
    <rect fill="#f72585" height="44.02" rx="22.01" width="85.78" x="145.01" y="191.81" />
    <rect fill="#7209b7" height="44.02" rx="22.01" width="93.42" x="21" y="128.61" />
    <rect fill="#7209b7" height="44.02" rx="22.01" transform="matrix(-1 0 0 -1 615.02 301.23)"
        width="93.42" x="260.8" y="128.61" />
    <rect fill="#7209b7" height="44.02" rx="22.01" width="117.53" x="129.13" y="128.46" />
</svg>