<svg id="svg853" version="1.1" viewBox="0 0 39 25" xmlns="http://www.w3.org/2000/svg">
    <path id="path833"
        d="m13.948 0.43726h-5.0748c-1.246 0-2.256 1.0137-2.256 2.2641 0 1.2504 1.0101 2.2641 2.256 2.2641h5.0748c1.246 0 2.256-1.0137 2.256-2.2641 0-1.2504-1.01-2.2641-2.256-2.2641z"
        fill="#000000" />
    <path id="path835"
        d="m29.71 0.43726h-5.0748c-1.2459 0-2.256 1.0137-2.256 2.2641 0 1.2504 1.0101 2.2641 2.256 2.2641h5.0748c1.246 0 2.256-1.0137 2.256-2.2641 0-1.2504-1.01-2.2641-2.256-2.2641z"
        fill="#000000" />
    <path id="path837"
        d="m16.332 6.9539h-9.6145c-1.246 0-2.256 1.0137-2.256 2.2641s1.01 2.2641 2.256 2.2641h9.6145c1.2459 0 2.256-1.0137 2.256-2.2641s-1.0101-2.2641-2.256-2.2641z"
        fill="#000000" />
    <path id="path839"
        d="m22.872 11.481h9.0005c1.246 0 2.256-1.0137 2.256-2.2642 0-1.2504-1.01-2.2641-2.256-2.2641h-9.0005c-1.246 0-2.2561 1.0137-2.2561 2.2641 0 1.2504 1.0101 2.2642 2.2561 2.2642z"
        fill="#000000" />
    <g fill="#000000">
        <path id="path841"
            d="m7.5807 20.183h-5.2582c-1.246 0-2.256 1.0137-2.256 2.2641 0 1.2505 1.0101 2.2641 2.256 2.2641h5.2582c1.246 0 2.256-1.0136 2.256-2.2641 0-1.2504-1.0101-2.2641-2.256-2.2641z" />
        <path id="path843"
            d="m31.099 24.71h5.2583c1.2459 0 2.256-1.0137 2.256-2.2641s-1.0101-2.2641-2.256-2.2641h-5.2583c-1.2459 0-2.256 1.0137-2.256 2.2641s1.0101 2.2641 2.256 2.2641z" />
        <path id="path845"
            d="m21.466 20.167h-4.2804c-1.246 0-2.256 1.0137-2.256 2.2641s1.01 2.2641 2.256 2.2641h4.2804c1.246 0 2.256-1.0137 2.256-2.2641s-1.01-2.2641-2.256-2.2641z" />
    </g>
    <g fill="#000000">
        <path id="path847"
            d="m9.5383 13.666h-5.0635c-1.246 0-2.256 1.0136-2.256 2.2641 0 1.2504 1.0101 2.2641 2.256 2.2641h5.0635c1.2459 0 2.256-1.0137 2.256-2.2641 0-1.2505-1.0101-2.2641-2.256-2.2641z" />
        <path id="path849"
            d="m29.054 18.194h5.0635c1.246 0 2.256-1.0136 2.256-2.2641 0-1.2504-1.01-2.2641-2.256-2.2641h-5.0635c-1.2459 0-2.256 1.0137-2.256 2.2641 0 1.2505 1.0101 2.2641 2.256 2.2641z" />
        <path id="path851"
            d="m23.094 13.652h-7.5347c-1.246 0-2.2561 1.0137-2.2561 2.2641 0 1.2505 1.0101 2.2641 2.2561 2.2641h7.5347c1.246 0 2.2561-1.0136 2.2561-2.2641 0-1.2504-1.0101-2.2641-2.2561-2.2641z" />
    </g>
</svg>
   