<svg width="99" height="22" viewBox="0 0 99 22" fill="none" xmlns="http://www.w3.org/2000/svg">
<path d="M25.6478 9.81006V16.2644H21.1581V10.5121C21.1581 8.54262 20.2797 7.87966 18.4642 7.87966C16.7661 7.87966 15.3215 8.54262 15.3215 10.5121V16.2644H10.8319V10.5121C10.8319 8.54262 9.95344 7.87966 8.13798 7.87966C6.43972 7.87966 4.99529 8.54262 4.99529 10.5121V16.2644H0.505615V4.56474H4.99529V6.63165C6.24453 5.11074 7.88425 4.17478 10.1486 4.17478C12.2177 4.17478 14.0917 5.03262 14.892 7.17764C16.1999 5.34478 17.9372 4.17478 20.4749 4.17478C23.2467 4.17478 25.6478 5.71511 25.6478 9.81006Z" fill="#F5F5F7"/>
<path d="M39.5654 12.7545V11.8575C38.0624 11.643 36.4031 11.4676 34.9001 11.4676C32.9286 11.4676 32.1867 11.721 32.1867 12.423C32.1867 13.086 32.7724 13.3395 34.4511 13.3395C35.8565 13.3395 38.2771 12.969 39.5654 12.7545ZM44.0551 10.2781V16.2644H39.5654V14.7045C37.4768 15.9914 34.9001 16.4594 32.909 16.4594C29.8443 16.4594 27.5018 15.5039 27.5018 12.735C27.5018 9.53708 31.0156 8.73762 34.2364 8.73762C36.2275 8.73762 38.0428 9.01051 39.5654 9.32267C39.4483 7.70411 37.9843 7.29462 35.9346 7.29462C33.846 7.29462 31.8549 7.58714 29.083 8.23058L28.4583 5.16924C30.996 4.60371 33.7289 4.17469 36.774 4.17469C41.6736 4.17469 44.016 5.81267 44.0551 10.2781Z" fill="#F5F5F7"/>
<path d="M58.0315 4.56471H62.5797L57.075 15.972C55.4353 19.3649 53.6589 21.3344 50.0477 21.3344C48.7594 21.3344 47.1197 21.0809 45.6166 20.6519V17.2394C47.3539 17.6294 48.5837 17.8244 49.384 17.8244C50.887 17.8244 51.5313 17.7075 52.3511 16.2644H50.2429L44.6405 4.56471H49.1888L53.6004 13.7685L58.0315 4.56471Z" fill="#F5F5F7"/>
<path d="M75.7756 10.4146C75.7756 8.69856 74.5849 7.87957 72.2034 7.87957C69.8219 7.87957 68.6311 8.69856 68.6311 10.4146C68.6311 12.1305 69.8219 12.9495 72.2034 12.9495C74.5849 12.9495 75.7756 12.1305 75.7756 10.4146ZM80.4604 10.4146C80.4604 15.1335 77.0834 16.6545 74.0577 16.6545C71.9301 16.6545 69.8219 15.9915 68.6311 14.178V16.2644H64.1414V0.664795H68.6311V6.65119C69.8219 4.83765 71.9301 4.17469 74.0577 4.17469C77.0834 4.17469 80.4604 5.6956 80.4604 10.4146Z" fill="#F5F5F7"/>
<path d="M86.9214 8.93258H94.2415C93.734 7.58713 92.4846 7.09962 90.5522 7.09962C88.6586 7.09962 87.4094 7.58713 86.9214 8.93258ZM94.3977 12.072H98.7898C98.0089 14.9776 95.647 16.6545 90.7278 16.6545C85.4574 16.6545 82.217 14.5485 82.217 10.4145C82.217 6.28073 85.672 4.17477 90.5522 4.17477C95.5689 4.17477 98.8873 6.3976 98.8873 11.1555H86.7652C87.0776 12.852 88.5415 13.3395 90.9035 13.3395C93.1093 13.3395 94.0073 12.8325 94.3977 12.072Z" fill="#F5F5F7"/>
</svg>
