<svg width="74" height="60" viewBox="0 0 74 60" fill="none" xmlns="http://www.w3.org/2000/svg">
    <path d="M21.3376 39.7971H14.1672C12.4682 39.7971 11.0908 41.1795 11.0908 42.8848C11.0908 44.59 12.4682 45.9724 14.1672 45.9724H21.3376C23.0366 45.9724 24.414 44.59 24.414 42.8848C24.414 41.1795 23.0366 39.7971 21.3376 39.7971Z" fill="#38393B"/>
    <path d="M53.4076 45.9711H60.5779C62.2769 45.9711 63.6543 44.5887 63.6543 42.8834C63.6543 41.1782 62.2769 39.7958 60.5779 39.7958H53.4076C51.7085 39.7958 50.3312 41.1782 50.3312 42.8834C50.3312 44.5887 51.7085 45.9711 53.4076 45.9711Z" fill="#38393B"/>
    <path d="M40.2727 39.7761H34.4358C32.7367 39.7761 31.3594 41.1585 31.3594 42.8638C31.3594 44.569 32.7367 45.9514 34.4358 45.9514H40.2727C41.9717 45.9514 43.3491 44.569 43.3491 42.8638C43.3491 41.1585 41.9717 39.7761 40.2727 39.7761Z" fill="#38393B"/>
    <path d="M50.6214 37.0858H57.5261C59.2252 37.0858 60.6025 35.7034 60.6025 33.9982C60.6025 32.2929 59.2252 30.9105 57.5261 30.9105H50.6214C48.9223 30.9105 47.545 32.2929 47.545 33.9982C47.545 35.7034 48.9223 37.0858 50.6214 37.0858Z" fill="#38393B"/>
    <path d="M24.0066 30.9102H17.1018C15.4027 30.9102 14.0254 32.2925 14.0254 33.9978C14.0254 35.7031 15.4027 37.0855 17.1018 37.0855H24.0066C25.7056 37.0855 27.083 35.7031 27.083 33.9978C27.083 32.2925 25.7056 30.9102 24.0066 30.9102Z" fill="#38393B"/>
    <path d="M42.4888 30.8905H32.2141C30.515 30.8905 29.1377 32.2729 29.1377 33.9782C29.1377 35.6834 30.515 37.0658 32.2141 37.0658H42.4888C44.1878 37.0658 45.5652 35.6834 45.5652 33.9782C45.5652 32.2729 44.1878 30.8905 42.4888 30.8905Z" fill="#38393B"/>
    <path d="M33.2701 21.7566H20.1594C18.4604 21.7566 17.083 23.139 17.083 24.8442C17.083 26.5495 18.4604 27.9319 20.1594 27.9319H33.2701C34.9691 27.9319 36.3465 26.5495 36.3465 24.8442C36.3465 23.139 34.9691 21.7566 33.2701 21.7566Z" fill="#38393B"/>
    <path d="M42.1902 27.9305L54.4636 27.9305C56.1627 27.9305 57.54 26.5482 57.54 24.8429C57.54 23.1376 56.1627 21.7552 54.4636 21.7552H42.1902C40.4912 21.7552 39.1138 23.1376 39.1138 24.8429C39.1138 26.5482 40.4912 27.9305 42.1902 27.9305Z" fill="#38393B"/>
    <path d="M51.5131 12.8696H44.593C42.8939 12.8696 41.5166 14.252 41.5166 15.9573C41.5166 17.6625 42.8939 19.0449 44.593 19.0449H51.5131C53.2122 19.0449 54.5895 17.6625 54.5895 15.9573C54.5895 14.252 53.2122 12.8696 51.5131 12.8696Z" fill="#38393B"/>
    <path d="M30.02 12.8696H23.0998C21.4008 12.8696 20.0234 14.252 20.0234 15.9573C20.0234 17.6625 21.4008 19.0449 23.0998 19.0449H30.02C31.719 19.0449 33.0964 17.6625 33.0964 15.9573C33.0964 14.252 31.719 12.8696 30.02 12.8696Z" fill="#38393B"/>
</svg>
