<svg width="200" height="59" viewBox="0 0 200 59" fill="none" xmlns="http://www.w3.org/2000/svg">
    <rect x="139.225" y="0.262316" width="51" height="51" rx="13.5" transform="rotate(10 139.225 0.262316)" fill="url(#paint0_linear_1002_84485)" />
    <g clip-path="url(#clip0_1002_84485)">
        <path d="M156.201 22.0411L156.722 19.0867C156.768 18.8255 156.916 18.5933 157.133 18.4412C157.351 18.2891 157.619 18.2295 157.881 18.2755L165.759 19.6647C166.02 19.7108 166.252 19.8587 166.404 20.0759C166.557 20.2932 166.616 20.562 166.57 20.8232L166.049 23.7776L169.988 24.4722C170.25 24.5182 170.482 24.6662 170.634 24.8834C170.786 25.1007 170.846 25.3695 170.8 25.6306L168.369 39.418C168.322 39.6791 168.175 39.9113 167.957 40.0635C167.74 40.2156 167.471 40.2752 167.21 40.2291L149.484 37.1034C149.222 37.0574 148.99 36.9095 148.838 36.6922C148.686 36.475 148.626 36.2062 148.672 35.945L151.103 22.1577C151.149 21.8965 151.297 21.6643 151.515 21.5122C151.732 21.3601 152.001 21.3005 152.262 21.3465L156.201 22.0411ZM167.614 32.177L151.858 29.3986L150.816 35.3075L166.573 38.0858L167.614 32.177ZM168.656 26.2682L152.899 23.4898L152.205 27.429L155.159 27.95L155.507 25.9803L157.476 26.3276L157.129 28.2973L163.038 29.3391L163.385 27.3695L165.355 27.7168L165.007 29.6864L167.962 30.2074L168.656 26.2682ZM158.518 20.4188L158.171 22.3884L164.08 23.4303L164.427 21.4607L158.518 20.4188Z" fill="#868E96" />
    </g>
    <rect x="139.225" y="0.262316" width="51" height="51" rx="13.5" transform="rotate(10 139.225 0.262316)" stroke="#16161A" stroke-width="3" />
    <rect x="86.7628" y="8.78326" width="51" height="51" rx="13.5" transform="rotate(-10 86.7628 8.78326)" fill="url(#paint1_linear_1002_84485)" />
    <g clip-path="url(#clip1_1002_84485)">
        <path d="M126.556 35.7834C126.602 36.0446 126.542 36.3134 126.39 36.5307C126.238 36.7479 126.006 36.8958 125.745 36.9419L109.988 39.7203C109.727 39.7663 109.458 39.7067 109.24 39.5546C109.023 39.4025 108.875 39.1703 108.829 38.9091L107.004 28.5588C106.978 28.4087 106.986 28.2546 107.028 28.1081C107.07 27.9617 107.145 27.8268 107.247 27.7137L114.045 20.1971C114.194 20.0321 114.394 19.9216 114.613 19.883C114.832 19.8443 115.058 19.8798 115.255 19.9838L124.213 24.7221C124.348 24.7934 124.465 24.8945 124.554 25.0177C124.644 25.1409 124.704 25.283 124.731 25.4331L126.556 35.7834V35.7834ZM124.413 35.1459L122.846 26.261L115.007 22.1152L109.059 28.6921L110.625 37.577L124.413 35.1459Z" fill="#868E96" />
    </g>
    <rect x="86.7628" y="8.78326" width="51" height="51" rx="13.5" transform="rotate(-10 86.7628 8.78326)" stroke="#16161A" stroke-width="3" />
    <rect x="52.0123" y="0.262316" width="51" height="51" rx="13.5" transform="rotate(10 52.0123 0.262316)" fill="url(#paint2_linear_1002_84485)" />
    <rect x="52.0123" y="0.262316" width="51" height="51" rx="13.5" transform="rotate(10 52.0123 0.262316)" stroke="#16161A" stroke-width="3" />
    <path d="M72.4377 18.4135C71.0231 18.1702 69.6632 18.2238 68.9896 18.3094C68.9896 18.3094 74.6107 20.3059 74.3932 24.3574C71.1011 17.2861 64.957 24.0527 64.957 24.0527C66.0041 23.9687 69.0071 23.7011 70.8638 24.3647C72.1342 24.8188 73.2032 26.2216 73.1507 26.1971C69.8952 26.4084 62.5073 39.3116 63.152 40.5789C63.752 41.5669 64.555 41.4075 65.3824 41.1059C66.2689 38.2516 71.4283 25.952 74.7951 27.612C74.7956 27.6122 74.7962 27.612 74.7966 27.6122C75.0776 27.7664 75.3289 27.9941 75.2962 28.2687C75.2341 28.7918 74.7478 29.5788 74.7238 30.1807C74.6677 31.5774 74.8534 32.0994 75.1611 32.6444C76.1885 32.2878 77.415 30.5654 77.7721 29.6231C78.546 30.1349 79.7447 31.2157 80.2917 34.5409C81.3837 31.7078 80.9632 29.2471 78.424 27.7396C79.6912 27.4424 84.3681 30.902 84.7429 32.4367C85.8047 29.9758 82.0516 26.0735 78.4362 25.6082C79.1551 25.5515 79.8739 25.8926 80.6855 25.4943C81.7744 24.9598 83.0065 24.5514 84.1698 24.0844C80.9122 21.9417 77.5261 22.119 77.0194 23.653C77.4555 20.1271 74.8651 18.831 72.4376 18.4135L72.4377 18.4135Z" fill="#868E96" />
    <rect x="-0.450086" y="8.78326" width="51" height="51" rx="13.5" transform="rotate(-10 -0.450086 8.78326)" fill="url(#paint3_linear_1002_84485)" />
    <g clip-path="url(#clip2_1002_84485)">
        <path d="M22.8916 34.6226L23.9335 40.5314L21.9639 40.8787L18.6646 22.1674L27.904 20.5382C28.0869 20.506 28.2751 20.5254 28.4475 20.5942C28.62 20.663 28.7699 20.7784 28.8805 20.9275L29.8447 22.2268L35.7536 21.185C36.0148 21.1389 36.2836 21.1985 36.5008 21.3506C36.7181 21.5027 36.866 21.7349 36.912 21.9961L38.8222 32.829C38.8682 33.0902 38.8086 33.359 38.6565 33.5762C38.5044 33.7935 38.2722 33.9414 38.011 33.9875L31.726 35.0957C31.5431 35.1278 31.3549 35.1084 31.1825 35.0397C31.01 34.9709 30.8601 34.8555 30.7495 34.7063L29.7852 33.407L22.8916 34.6226ZM20.9815 23.7897L22.5443 32.6529L30.6552 31.2228L31.9873 33.0187L36.6789 32.1915L35.1161 23.3282L28.9748 24.4111L27.6427 22.6151L20.9815 23.7897Z" fill="#868E96" />
    </g>
    <rect x="-0.450086" y="8.78326" width="51" height="51" rx="13.5" transform="rotate(-10 -0.450086 8.78326)" stroke="#16161A" stroke-width="3" />
    <defs>
        <linearGradient id="paint0_linear_1002_84485" x1="157.152" y1="15.8081" x2="158.856" y2="48.5089" gradientUnits="userSpaceOnUse">
        <stop stop-color="#232428" />
        <stop offset="1" stop-color="#16161A" />
    </linearGradient>
    <linearGradient id="paint1_linear_1002_84485" x1="109.472" y1="17.7595" x2="107.855" y2="58.5993" gradientUnits="userSpaceOnUse">
        <stop stop-color="#232428" />
        <stop offset="1" stop-color="#16161A" />
    </linearGradient>
    <linearGradient id="paint2_linear_1002_84485" x1="72.1185" y1="15.4238" x2="72.0268" y2="49.4568" gradientUnits="userSpaceOnUse">
        <stop stop-color="#232428" />
        <stop offset="1" stop-color="#16161A" />
    </linearGradient>
    <linearGradient id="paint3_linear_1002_84485" x1="20.5286" y1="23.0393" x2="21.0258" y2="57.6514" gradientUnits="userSpaceOnUse">
        <stop stop-color="#232428" />
        <stop offset="1" stop-color="#16161A" />
    </linearGradient>
    <clipPath id="clip0_1002_84485">
        <rect width="24" height="24" fill="white" transform="translate(150.176 15.9015) rotate(10)" />
    </clipPath>
    <clipPath id="clip1_1002_84485">
        <rect width="24" height="24" fill="white" transform="translate(102.402 19.7339) rotate(-10)" />
    </clipPath>
    <clipPath id="clip2_1002_84485">
        <rect width="24" height="24" fill="white" transform="translate(15.189 19.7339) rotate(-10)" />
    </clipPath>
    </defs>
</svg>