<?xml version="1.0" standalone="no"?>
<!DOCTYPE svg PUBLIC "-//W3C//DTD SVG 20010904//EN"
 "http://www.w3.org/TR/2001/REC-SVG-20010904/DTD/svg10.dtd">
<svg version="1.0" xmlns="http://www.w3.org/2000/svg"
 width="1248.000000pt" height="1248.000000pt" viewBox="0 0 1248.000000 1248.000000"
 preserveAspectRatio="xMidYMid meet">
<metadata>
Created by potrace 1.11, written by Peter Selinger 2001-2013
</metadata>
<g transform="translate(0.000000,1248.000000) scale(0.100000,-0.100000)"
fill="#000000" stroke="none">
<path d="M2670 10079 c-82 -21 -218 -84 -265 -124 -170 -145 -250 -283 -281
-485 -6 -43 -7 -153 0 -187 3 -18 8 -47 11 -63 12 -71 73 -210 115 -264 26
-34 105 -121 112 -124 4 -2 22 -16 40 -32 18 -17 38 -30 45 -30 6 0 13 -3 15
-8 4 -10 126 -68 173 -81 22 -6 62 -16 89 -20 68 -12 1816 -11 1869 1 23 5 49
11 59 13 9 2 48 17 87 33 271 114 445 373 445 662 0 65 -11 168 -20 181 -3 5
-8 21 -10 36 -7 39 -61 149 -100 205 -30 42 -111 128 -156 163 -50 40 -170 99
-245 120 -12 3 -32 9 -45 13 -13 3 -437 7 -943 8 -876 2 -924 1 -995 -17z"/>
<path d="M7755 10089 c-16 -5 -41 -10 -55 -13 -36 -6 -75 -21 -157 -63 -73
-37 -193 -141 -246 -213 -53 -73 -106 -197 -122 -285 -23 -120 -9 -294 31
-390 36 -85 45 -104 54 -110 6 -4 8 -11 5 -16 -4 -5 -2 -9 4 -9 5 0 12 -9 16
-20 12 -38 159 -175 233 -218 41 -23 78 -42 83 -42 5 0 17 -5 27 -10 9 -6 51
-19 92 -30 72 -18 115 -19 990 -16 503 1 925 5 938 9 12 4 32 9 44 12 44 9
158 57 158 66 0 5 6 9 13 9 18 0 114 72 162 123 49 50 119 152 130 187 4 14
13 32 20 40 7 8 15 29 19 45 14 64 17 79 21 85 13 21 16 196 5 257 -31 173
-90 286 -215 408 -86 84 -156 127 -273 169 l-87 31 -930 2 c-520 1 -943 -3
-960 -8z"/>
<path d="M2065 8012 c-11 -2 -47 -10 -80 -19 -33 -8 -66 -15 -72 -16 -7 0 -13
-5 -13 -10 0 -6 -3 -7 -6 -4 -8 8 -115 -47 -169 -87 -134 -99 -255 -285 -279
-426 -3 -19 -8 -46 -11 -60 -20 -87 3 -267 47 -375 52 -126 164 -262 274 -332
41 -27 140 -73 154 -73 9 0 20 -4 26 -10 33 -33 163 -35 1764 -34 872 1 1606
4 1632 7 75 9 190 53 272 102 42 26 76 51 76 56 0 5 5 9 11 9 25 0 148 156
183 234 22 48 39 91 36 91 -1 0 3 12 9 28 18 45 22 77 26 175 8 250 -108 481
-316 622 -46 32 -120 70 -139 72 -3 0 -14 5 -25 11 -11 6 -22 12 -25 12 -13 2
-87 19 -100 23 -17 4 -3246 9 -3275 4z"/>
<path d="M7256 8013 c-1 -2 -20 -5 -42 -7 -43 -6 -49 -7 -114 -25 -53 -16
-152 -64 -200 -99 -53 -39 -164 -156 -186 -197 -10 -19 -22 -35 -26 -35 -5 0
-8 -8 -8 -18 0 -10 -6 -24 -12 -30 -7 -7 -13 -16 -14 -20 0 -4 -10 -37 -22
-74 -11 -36 -24 -86 -27 -110 -8 -51 -12 -168 -6 -174 3 -2 6 -22 8 -45 9 -88
70 -236 133 -320 34 -45 113 -129 122 -129 4 0 18 -10 32 -23 24 -23 144 -85
201 -105 96 -34 136 -35 1640 -36 1342 -1 1540 1 1624 19 171 35 355 165 450
318 113 183 142 400 80 597 -25 80 -71 172 -112 225 -39 51 -135 145 -147 145
-6 0 -10 3 -10 8 0 4 -8 12 -19 17 -10 6 -41 22 -69 38 -50 26 -121 54 -166
63 -11 3 -34 7 -51 10 -28 6 -3054 12 -3059 7z"/>
<path d="M4987 5874 c-1 -1 -31 -4 -67 -7 -36 -3 -74 -8 -85 -10 -70 -17 -112
-30 -124 -40 -8 -7 -15 -11 -15 -9 -2 6 -41 -11 -58 -26 -10 -8 -18 -12 -18
-8 0 4 -25 -12 -56 -35 -197 -145 -306 -358 -305 -594 0 -44 3 -91 6 -105 3
-14 8 -37 10 -51 2 -14 13 -51 24 -83 86 -244 304 -428 561 -474 47 -8 2581
-9 2647 0 28 3 61 11 72 17 12 7 21 10 21 7 0 -5 44 12 110 42 123 56 240 170
317 312 91 164 109 407 43 579 -36 93 -45 111 -52 111 -4 0 -8 5 -8 11 0 18
-71 110 -125 162 -48 47 -164 125 -173 119 -3 -2 -8 1 -11 6 -17 27 -180 67
-287 71 -80 3 -2424 7 -2427 5z"/>
<path d="M1357 5864 c-1 -1 -20 -4 -42 -8 -22 -3 -54 -10 -72 -15 -17 -5 -34
-7 -37 -3 -3 3 -6 -1 -6 -8 0 -7 -3 -10 -6 -7 -4 3 -16 1 -28 -5 -11 -7 -23
-12 -26 -13 -3 0 -37 -18 -75 -40 -76 -44 -189 -149 -230 -215 -35 -55 -75
-131 -75 -141 0 -4 -5 -20 -12 -36 -6 -15 -12 -33 -14 -40 -1 -6 -7 -34 -13
-62 -17 -81 -7 -252 21 -341 23 -74 88 -199 123 -236 5 -6 24 -26 40 -45 97
-110 274 -203 424 -224 64 -9 1777 -10 1817 -1 16 4 43 8 59 10 49 7 145 46
219 90 71 41 210 172 221 207 4 10 10 19 15 19 4 0 11 11 14 25 4 14 11 25 16
25 6 0 10 8 10 18 0 10 7 28 16 40 8 12 12 22 8 22 -3 0 -1 7 6 15 7 8 9 15 5
15 -4 0 -2 7 5 15 7 8 9 15 6 15 -4 0 -2 8 3 18 21 39 30 181 18 283 -7 62
-49 197 -74 238 -75 122 -149 204 -243 266 -84 56 -156 86 -265 111 -26 6
-1821 14 -1828 8z"/>
<path d="M9217 5864 c-1 -1 -20 -5 -42 -8 -95 -14 -205 -61 -301 -127 -40 -27
-94 -80 -149 -144 -32 -37 -114 -200 -121 -239 -3 -16 -7 -33 -9 -36 -15 -25
-24 -186 -13 -255 9 -63 16 -100 18 -100 1 0 4 -11 6 -24 6 -32 73 -171 90
-189 8 -7 14 -17 14 -21 0 -17 137 -147 190 -182 101 -66 201 -103 310 -114
107 -12 1845 -7 1845 5 0 1 8 3 18 6 9 2 23 6 30 8 6 2 27 7 45 11 17 4 32 11
32 15 0 3 6 7 14 7 28 0 150 77 213 136 139 131 221 302 229 482 1 39 4 72 5
75 1 3 0 10 -1 15 -1 6 -4 28 -6 50 -10 83 -51 206 -86 257 -10 14 -18 29 -18
33 0 24 -110 143 -184 199 -87 66 -238 128 -331 136 -31 3 -1795 7 -1798 4z"/>
<path d="M787 3784 c-1 -1 -40 -4 -87 -7 -99 -7 -124 -12 -188 -33 -43 -15
-129 -57 -177 -87 -28 -17 -195 -186 -195 -197 0 -5 -13 -30 -29 -54 -15 -25
-36 -71 -45 -103 -10 -32 -20 -65 -23 -73 -13 -34 -16 -61 -17 -175 0 -120 11
-184 51 -275 8 -19 15 -36 14 -37 0 -2 7 -16 17 -32 88 -150 233 -278 372
-327 25 -9 52 -19 60 -22 17 -6 27 -8 90 -20 54 -10 1891 -8 1935 2 55 13 141
44 176 62 19 10 37 17 42 16 4 -1 7 2 7 8 0 5 7 10 15 10 8 0 15 4 15 9 0 5 9
12 19 16 31 10 159 144 199 209 20 34 37 63 37 66 1 3 9 23 19 45 52 117 66
320 32 450 -17 62 -85 210 -115 248 -29 38 -125 133 -168 166 -48 36 -182 101
-211 101 -10 0 -22 3 -26 7 -21 21 -156 25 -994 27 -453 0 -824 0 -825 0z"/>
<path d="M5428 3784 c-2 -1 -19 -4 -38 -7 -55 -8 -133 -27 -145 -36 -5 -4 -26
-14 -45 -21 -69 -27 -146 -83 -222 -162 -43 -44 -78 -86 -78 -94 0 -8 -4 -14
-8 -14 -10 0 -72 -132 -87 -187 -12 -43 -18 -78 -19 -110 -1 -18 -3 -33 -6
-33 -14 0 4 -179 27 -260 17 -62 82 -200 94 -200 4 0 10 -8 13 -18 8 -24 92
-113 150 -157 47 -36 176 -109 176 -99 0 2 9 0 21 -6 69 -37 166 -42 929 -42
841 0 826 -2 983 70 136 62 244 161 326 300 17 28 28 52 25 52 -4 0 -2 6 3 13
10 12 39 94 49 138 24 108 12 283 -27 393 -69 197 -232 362 -431 438 -107 40
-131 41 -920 43 -423 1 -769 1 -770 -1z"/>
<path d="M9987 3784 c-1 -1 -40 -4 -87 -7 -47 -3 -94 -8 -105 -10 -46 -11
-150 -51 -156 -59 -3 -5 -10 -9 -15 -9 -15 2 -126 -75 -171 -119 -99 -95 -182
-244 -209 -375 -15 -72 -8 -274 11 -340 20 -69 84 -204 105 -225 3 -3 25 -28
48 -57 92 -112 267 -212 417 -240 22 -4 463 -7 980 -7 866 0 945 1 1005 18 75
20 230 94 230 109 0 6 3 8 6 4 12 -11 139 115 186 186 30 43 78 140 83 167 2
8 8 28 14 44 31 80 32 270 2 381 -21 77 -71 187 -97 212 -8 8 -14 19 -14 23 0
25 -205 209 -240 216 -3 0 -27 11 -55 23 -27 13 -54 24 -60 25 -5 2 -28 8 -50
14 -22 6 -60 14 -85 17 -36 5 -1737 13 -1743 9z"/>
</g>
</svg>
