<svg xmlns="http://www.w3.org/2000/svg" viewBox="0 0 1442.61 235.96">
  <g id="Layer_2" data-name="Layer 2">
    <g id="Layer_1-2" data-name="Layer 1">
      <path class="cls-1" style="fill:#f5f5f7" d="M723.31,106.29v63.45h-44.1V113.19c0-19.36-8.62-25.88-26.45-25.88-16.68,0-30.87,6.52-30.87,25.88v56.55H577.8V113.19c0-19.36-8.63-25.88-26.46-25.88-16.68,0-30.86,6.52-30.86,25.88v56.55h-44.1v-115h44.1V75c12.26-15,28.37-24.16,50.61-24.16,20.32,0,38.72,8.44,46.58,29.53,12.85-18,29.91-29.53,54.83-29.53C699.73,50.88,723.31,66,723.31,106.29Z" />
      <path class="cls-1" style="fill:#f5f5f7" d="M904.09,110.89v58.85H860V154.41c-20.52,12.65-45.82,17.25-65.38,17.25-30.1,0-53.1-9.39-53.1-36.62,0-31.44,34.51-39.3,66.14-39.3A260.57,260.57,0,0,1,860,101.49c-1.15-15.91-15.53-19.93-35.66-19.93-20.52,0-40.07,2.87-67.29,9.2l-6.14-30.1c24.92-5.56,51.76-9.78,81.67-9.78C880.7,50.88,903.71,67,904.09,110.89ZM860,135.24v-8.82c-14.77-2.11-31.06-3.84-45.82-3.84-19.37,0-26.65,2.49-26.65,9.4,0,6.51,5.75,9,22.24,9C823.57,141,847.34,137.34,860,135.24Z" />
      <path class="cls-1" style="fill:#f5f5f7" d="M1041.35,54.72H1086L1032,166.87c-16.1,33.36-33.55,52.72-69,52.72-12.65,0-28.75-2.49-43.52-6.71V179.33c17.07,3.83,29.15,5.75,37,5.75,14.76,0,21.08-1.15,29.14-15.34H964.86l-55-115h44.67l43.33,90.48Z" />
      <path class="cls-1" style="fill:#f5f5f7" d="M1261.63,112.23c0,46.39-33.16,61.35-62.88,61.35-20.9,0-41.6-6.52-53.29-24.35v20.51h-44.1V16.37h44.1V75.23c11.69-17.83,32.39-24.35,53.29-24.35C1228.47,50.88,1261.63,65.84,1261.63,112.23Zm-46,0c0-16.87-11.69-24.92-35.08-24.92s-35.08,8-35.08,24.92,11.69,24.92,35.08,24.92S1215.62,129.1,1215.62,112.23Z" />
      <path class="cls-1" style="fill:#f5f5f7" d="M1398.51,128.53h43.14c-7.67,28.56-30.87,45.05-79.18,45.05-51.76,0-83.59-20.71-83.59-61.35s33.94-61.35,81.87-61.35c49.27,0,81.86,21.86,81.86,68.63H1323.55C1326.62,136.19,1341,141,1364.2,141,1385.86,141,1394.68,136,1398.51,128.53Zm-73.42-30.87H1397c-5-13.23-17.25-18-36.23-18C1342.15,79.64,1329.88,84.43,1325.09,97.66Z" />
      <rect class="cls-2" style="fill:#4cc9f0" x="63.93" width="93.53" height="44.02" rx="22.01" />
      <rect class="cls-2" style="fill:#4cc9f0" x="217.69" width="93.53" height="44.02" rx="22.01" />
      <rect class="cls-3" style="fill:#4361ee" x="42.89" y="63.35" width="137.82" height="44.02" rx="22.01" />
      <rect class="cls-3" style="fill:#4361ee" x="200.5" y="63.35" width="131.83" height="44.02" rx="22.01" transform="translate(532.83 170.71) rotate(-180)" />
      <rect class="cls-4" style="fill:#f72585" y="191.95" width="95.32" height="44.02" rx="22.01" />
      <rect class="cls-4" style="fill:#f72585" x="280.75" y="191.95" width="95.32" height="44.02" rx="22.01" transform="translate(656.82 427.91) rotate(-180)" />
      <rect class="cls-4" style="fill:#f72585" x="145.01" y="191.81" width="85.78" height="44.02" rx="22.01" />
      <rect class="cls-5" style="fill:#7209b7" x="21" y="128.61" width="93.42" height="44.02" rx="22.01" />
      <rect class="cls-5" style="fill:#7209b7" x="260.8" y="128.61" width="93.42" height="44.02" rx="22.01" transform="translate(615.02 301.23) rotate(180)" />
      <rect class="cls-5" style="fill:#7209b7" x="129.13" y="128.46" width="117.53" height="44.02" rx="22.01" />
    </g>
  </g>
</svg>