<svg width="57" height="20" viewBox="0 0 57 20" fill="none" xmlns="http://www.w3.org/2000/svg">
<path d="M38.4475 14.4643C38.4443 14.4675 38.4412 14.4675 38.4412 14.4706C36.0784 16.1503 33.2811 17.9148 30.2713 19.7671L30.1526 19.8362C30.1119 19.8645 30.1026 19.921 30.1307 19.9618C30.1588 20.0026 30.2151 20.012 30.2557 19.9838L30.3557 19.9304C32.9092 18.5929 35.8409 17.0043 38.7913 15.3748C38.8069 15.3654 38.8225 15.356 38.8381 15.3497C38.6756 15.0797 38.5412 14.7846 38.4475 14.4643V14.4643ZM53.9496 1.85883C50.2272 -2.26661 26.2708 1.4444 16.085 3.6798L15.8475 3.73003C15.7975 3.73945 15.7662 3.78655 15.7756 3.83364C15.785 3.88387 15.8318 3.91527 15.8787 3.90585L16.1131 3.85876C24.5518 2.34861 42.1042 0.257632 45.8797 4.01888C47.033 5.16797 46.758 6.64359 45.4203 8.3892C46.1391 8.85387 46.6517 9.58539 46.883 10.499C52.1025 7.02034 55.6061 3.6955 53.9496 1.85883V1.85883Z" fill="url(#paint0_linear_913_37209)"/>
<path d="M39.9545 13.3793C40.0014 14.8298 40.9171 16.0197 42.1079 16.0197C44.4176 16.0197 45.4021 13.169 45.3334 11.2664C45.2833 9.81275 44.3457 8.62598 43.1549 8.62598C41.1703 8.62284 39.8857 11.461 39.9545 13.3793V13.3793ZM38.7356 13.3008C38.6512 10.8237 40.5827 8.29004 43.3893 8.29004C45.2646 8.29004 46.4929 9.54588 46.5616 11.4705C46.6523 14.0826 44.8458 16.4813 41.911 16.4813C40.0295 16.4813 38.8012 15.2286 38.7356 13.3008V13.3008Z" fill="url(#paint1_linear_913_37209)"/>
<path d="M12.1549 12.647C12.0549 12.6847 11.9268 12.7224 11.7643 12.7569C11.6049 12.7946 11.3111 12.8448 10.886 12.9139C10.5922 12.961 10.3891 13.0206 10.2734 13.1054C10.164 13.187 10.0984 13.2844 10.0797 13.4068C10.0578 13.5355 10.0984 13.636 10.2078 13.7176C10.3203 13.7961 10.5078 13.8369 10.7735 13.8369C10.9735 13.8369 11.1673 13.8055 11.3548 13.7428C11.5455 13.68 11.708 13.5952 11.8299 13.4884C11.9205 13.41 11.9862 13.3095 12.0362 13.187C12.0674 13.1054 12.1081 12.9265 12.1549 12.647V12.647ZM14.5928 11.1243C14.5834 11.3504 14.5428 11.5513 14.4834 11.8998L14.0708 14.2263C14.0365 14.4335 14.1115 14.5936 14.3021 14.7066L14.2896 14.7977L11.9268 14.7945L11.9049 14.2043C11.5611 14.4115 11.1454 14.5873 10.7704 14.6909C10.3953 14.7882 10.0922 14.8291 9.63897 14.8291C8.87637 14.8291 8.43881 14.7506 8.13564 14.4837C7.82935 14.2106 7.67933 14.0285 7.69495 13.6517C7.70746 13.4351 7.81997 13.1556 7.97937 12.961C8.14189 12.7632 8.36692 12.6345 8.60758 12.5183C8.85136 12.4021 9.1389 12.3174 9.55459 12.2514C9.97339 12.1824 10.5547 12.1164 11.333 12.0505C11.7424 12.016 11.9924 11.9218 12.1081 11.8747C12.2706 11.8119 12.3362 11.7397 12.3581 11.6078C12.4019 11.3692 12.3268 11.2311 12.008 11.1683C11.1579 10.9987 9.56084 11.2782 8.73885 11.4822L9.18579 10.2704C10.2703 10.1102 11.2861 10.0098 12.3581 10.0098C14.0677 10.0098 14.6115 10.4964 14.5928 11.1243V11.1243Z" fill="url(#paint2_linear_913_37209)"/>
<path d="M21.4434 14.7953L22.2622 10.1455H24.525L23.7062 14.7953H21.4434ZM22.3872 9.06864C22.456 8.68561 23.0561 8.37793 23.7249 8.37793C24.3969 8.37793 24.8876 8.68875 24.822 9.06864C24.7501 9.45167 24.1531 9.76249 23.478 9.76249C22.8092 9.76249 22.3216 9.45167 22.3872 9.06864V9.06864Z" fill="url(#paint3_linear_913_37209)"/>
<path d="M32.5588 12.6587C32.4556 12.6932 32.3244 12.7309 32.165 12.7686C32.0056 12.8062 31.7118 12.8533 31.2867 12.9224C30.9961 12.9695 30.7898 13.0292 30.6773 13.1139C30.5679 13.1924 30.5054 13.2929 30.4804 13.4122C30.4554 13.5409 30.5022 13.6445 30.6085 13.723C30.7241 13.8015 30.9117 13.8392 31.1773 13.8392C31.3742 13.8392 31.568 13.8109 31.7587 13.7513C31.9524 13.6853 32.1118 13.6037 32.2369 13.497C32.3244 13.4185 32.39 13.3149 32.4369 13.1956C32.4681 13.1171 32.5088 12.9381 32.5588 12.6587V12.6587ZM34.9966 11.1328C34.9872 11.362 34.9466 11.563 34.8841 11.9083L34.4747 14.2379C34.4403 14.442 34.5153 14.6052 34.7059 14.7183L34.6934 14.7999L32.3306 14.803L32.3119 14.2096C31.9681 14.42 31.5493 14.5958 31.1773 14.6963C30.8023 14.7968 30.4991 14.8376 30.0397 14.8376C29.2771 14.8376 28.8426 14.7622 28.5395 14.4922C28.2301 14.2159 28.0832 14.037 28.0988 13.6602C28.1082 13.4404 28.2207 13.161 28.3832 12.9695C28.5457 12.7686 28.7708 12.643 29.0145 12.5268C29.2583 12.4107 29.5459 12.3259 29.9584 12.2568C30.3772 12.1909 30.9617 12.1218 31.7399 12.0559C32.1462 12.0213 32.3963 11.9303 32.5119 11.8832C32.6775 11.8204 32.7401 11.7482 32.7651 11.6132C32.8057 11.3777 32.7338 11.2396 32.4181 11.1737C31.5618 11.0041 29.9709 11.2835 29.1489 11.4876L29.5927 10.2757C30.6804 10.1156 31.693 10.0151 32.7651 10.0151C34.4684 10.0183 35.0122 10.5081 34.9966 11.1328V11.1328Z" fill="url(#paint4_linear_913_37209)"/>
<path d="M7.38837 13.1252C6.65076 13.2728 6.23821 13.3293 5.50998 13.3293C4.42858 13.3293 3.56909 12.7893 3.61597 11.8003C3.65035 11.141 4.42546 9.75331 6.3976 9.75331C7.01957 9.75331 7.50401 9.8632 8.15722 10.2368L8.44476 8.62306C7.55714 8.28712 6.96956 8.23689 6.20695 8.24317C3.6191 8.27142 1.1375 9.45191 0.828086 11.8537C0.515543 14.2932 3.48158 14.9054 4.79738 14.8991C5.55686 14.896 6.3476 14.8646 7.0852 14.7892L7.38837 13.1252Z" fill="url(#paint5_linear_913_37209)"/>
<path d="M25.7712 10.1205L25.9338 9.17233L28.2997 8.6543L28.0466 10.1174H29.2061L28.9873 11.053L27.8622 11.0498L27.1777 14.7891C27.1777 14.7891 24.8992 14.7734 24.8899 14.7891L25.5712 11.0592H24.7148L24.8899 10.1174H25.7712V10.1205Z" fill="url(#paint6_linear_913_37209)"/>
<path d="M38.3953 8.37163L37.2951 14.7921L34.9917 14.7953L36.1512 8.30884L38.3953 8.37163Z" fill="url(#paint7_linear_913_37209)"/>
<path d="M18.4484 11.2367C18.1515 11.2367 17.8827 11.3277 17.6452 11.5067C17.4077 11.6888 17.2576 11.9525 17.1982 12.301C17.1264 12.706 17.1701 12.998 17.3295 13.1769C17.492 13.3559 17.7233 13.4469 18.0296 13.4469C18.2359 13.4469 18.4484 13.4093 18.6047 13.3308C18.7985 13.2272 18.9329 13.1204 19.0485 12.9478C19.1735 12.7688 19.2548 12.5679 19.2985 12.3355C19.3642 11.9682 19.3079 11.6951 19.1391 11.513C18.9735 11.3309 18.7453 11.2367 18.4484 11.2367V11.2367ZM14.3291 16.4013L15.4324 10.1723H17.4202L17.267 10.9667C17.4389 10.7281 17.7139 10.5334 18.0952 10.3764C18.4797 10.2194 18.911 10.1033 19.3798 10.1033C19.8986 10.1033 20.2174 10.1315 20.605 10.3325C20.9894 10.5365 21.2613 10.8317 21.4051 11.2147C21.5551 11.5914 21.5864 12.0184 21.5051 12.48C21.3707 13.2492 20.9988 13.852 20.3862 14.2978C19.7799 14.7436 19.2329 14.8598 18.4547 14.8629C18.1796 14.8629 17.9484 14.8347 17.7577 14.7876C17.5702 14.7373 17.4202 14.6777 17.3076 14.6055C17.1982 14.5332 17.0826 14.4296 16.9357 14.2664L16.5669 16.4013H14.3291Z" fill="url(#paint8_linear_913_37209)"/>
<path d="M55.404 11.8074C55.3915 11.4338 55.204 11.1795 54.8195 11.1795C53.8913 11.1795 52.9037 13.0067 52.7349 13.7414C54.257 13.7446 55.4415 12.8341 55.404 11.8074V11.8074ZM55.604 14.6707L55.7822 14.7932C55.329 15.7194 54.407 16.4635 53.3256 16.4635C52.4411 16.4635 51.7129 15.8701 51.6754 14.7586C51.6035 12.765 53.4631 10.9158 54.9852 10.9158C55.6384 10.9158 56.2447 11.2015 56.2697 11.9079C56.326 13.4934 54.1101 13.9769 52.6505 14.0114C52.6036 14.1778 52.5849 14.3442 52.5942 14.5954C52.6192 15.2516 53.013 15.8041 53.8319 15.8041C54.5383 15.8041 55.2446 15.2327 55.604 14.6707V14.6707Z" fill="url(#paint9_linear_913_37209)"/>
<path d="M46.5268 11.7562C46.683 11.7342 46.9362 11.7059 47.0456 11.7059C47.2112 11.7059 47.3675 11.7373 47.3769 11.9037C47.38 12.0011 47.205 12.7075 47.1675 12.8707L46.8143 14.4343C46.6705 15.0747 46.5174 15.7435 46.3799 16.2741H47.2863L47.7957 13.7969C49.349 12.1706 49.9491 11.64 50.3148 11.64C50.4805 11.64 50.593 11.7279 50.6023 11.9257C50.6117 12.2114 50.4336 12.8613 50.3742 13.0497L49.8554 14.855C49.7366 15.26 49.6491 15.6273 49.6585 15.8879C49.6741 16.2835 49.9116 16.4593 50.2679 16.4593C50.9305 16.4593 51.4118 15.7654 51.8306 15.0842L51.7087 14.8612C51.54 15.1344 51.1462 15.734 50.8368 15.734C50.7399 15.734 50.6461 15.6681 50.643 15.5049C50.6336 15.2945 50.7211 14.9774 50.7836 14.7671L51.3618 12.651C51.5181 12.067 51.59 11.6934 51.5869 11.4924C51.5712 11.0969 51.3431 10.9116 50.9899 10.9116C50.3929 10.9116 49.6022 11.3512 47.9238 13.2883H47.8988L48.1114 12.3433C48.227 11.8252 48.3395 11.2852 48.4458 10.9116C47.8645 11.122 47.0331 11.3574 46.5205 11.4579L46.5268 11.7562Z" fill="url(#paint10_linear_913_37209)"/>
<defs>
<linearGradient id="paint0_linear_913_37209" x1="35.0689" y1="0" x2="35.0689" y2="20" gradientUnits="userSpaceOnUse">
<stop stop-color="#DEE2E6"/>
<stop offset="1" stop-color="#F8F9FA"/>
</linearGradient>
<linearGradient id="paint1_linear_913_37209" x1="42.6489" y1="8.29004" x2="42.6489" y2="16.4813" gradientUnits="userSpaceOnUse">
<stop stop-color="#DEE2E6"/>
<stop offset="1" stop-color="#F8F9FA"/>
</linearGradient>
<linearGradient id="paint2_linear_913_37209" x1="11.1435" y1="10.0098" x2="11.1435" y2="14.8291" gradientUnits="userSpaceOnUse">
<stop stop-color="#DEE2E6"/>
<stop offset="1" stop-color="#F8F9FA"/>
</linearGradient>
<linearGradient id="paint3_linear_913_37209" x1="23.1356" y1="8.37793" x2="23.1356" y2="14.7953" gradientUnits="userSpaceOnUse">
<stop stop-color="#DEE2E6"/>
<stop offset="1" stop-color="#F8F9FA"/>
</linearGradient>
<linearGradient id="paint4_linear_913_37209" x1="31.5473" y1="10.0151" x2="31.5473" y2="14.8376" gradientUnits="userSpaceOnUse">
<stop stop-color="#DEE2E6"/>
<stop offset="1" stop-color="#F8F9FA"/>
</linearGradient>
<linearGradient id="paint5_linear_913_37209" x1="4.62497" y1="8.24268" x2="4.62497" y2="14.8992" gradientUnits="userSpaceOnUse">
<stop stop-color="#DEE2E6"/>
<stop offset="1" stop-color="#F8F9FA"/>
</linearGradient>
<linearGradient id="paint6_linear_913_37209" x1="26.9605" y1="8.6543" x2="26.9605" y2="14.7891" gradientUnits="userSpaceOnUse">
<stop stop-color="#DEE2E6"/>
<stop offset="1" stop-color="#F8F9FA"/>
</linearGradient>
<linearGradient id="paint7_linear_913_37209" x1="36.6935" y1="8.30884" x2="36.6935" y2="14.7953" gradientUnits="userSpaceOnUse">
<stop stop-color="#DEE2E6"/>
<stop offset="1" stop-color="#F8F9FA"/>
</linearGradient>
<linearGradient id="paint8_linear_913_37209" x1="17.939" y1="10.1033" x2="17.939" y2="16.4013" gradientUnits="userSpaceOnUse">
<stop stop-color="#DEE2E6"/>
<stop offset="1" stop-color="#F8F9FA"/>
</linearGradient>
<linearGradient id="paint9_linear_913_37209" x1="53.9721" y1="10.9158" x2="53.9721" y2="16.4635" gradientUnits="userSpaceOnUse">
<stop stop-color="#DEE2E6"/>
<stop offset="1" stop-color="#F8F9FA"/>
</linearGradient>
<linearGradient id="paint10_linear_913_37209" x1="49.1053" y1="10.9116" x2="49.1053" y2="16.4593" gradientUnits="userSpaceOnUse">
<stop stop-color="#DEE2E6"/>
<stop offset="1" stop-color="#F8F9FA"/>
</linearGradient>
</defs>
</svg>
