<svg width="40" height="20" viewBox="0 0 40 20" fill="none" xmlns="http://www.w3.org/2000/svg">
<path d="M38.2786 8.61057C38.2786 9.78474 36.85 10.8415 35.7345 10.8415C34.9909 10.8415 34.3451 10.3131 34.3451 10C34.3451 9.8043 34.4038 9.23679 34.6778 9.23679C34.8735 9.23679 35.0496 9.39335 35.2453 9.56947C35.5193 9.82387 35.852 10.1174 36.3412 10.1174C36.8304 10.1174 37.3392 9.78474 37.3392 9.23679C37.3392 8.90411 37.0848 8.591 36.8109 8.21918C36.4586 7.76908 36.0477 7.2407 36.0477 6.57534C36.0477 5.36203 37.261 3.79648 38.6308 3.79648C39.2375 3.79648 39.5897 4.14873 39.5897 4.48141C39.5897 4.75538 39.2962 5.10763 38.9635 5.10763C38.7091 5.10763 38.5134 5.00978 38.3177 4.93151C38.122 4.85323 37.9263 4.75538 37.6915 4.75538C37.2218 4.75538 36.9087 5.10763 36.9087 5.65558C36.9087 6.06653 37.2023 6.45793 37.5154 6.86888C37.8676 7.37769 38.2786 7.94521 38.2786 8.61057ZM8.43513 0C8.41556 0 8.37643 0.039138 8.37643 0.0587075V0.391389C8.37643 0.410959 8.39599 0.430527 8.41556 0.450097L8.61126 0.469666L8.86566 0.489237C9.19834 0.547945 9.27662 0.606652 9.27662 0.763208C9.27662 1.03718 8.96351 1.91781 8.53298 3.13112L8.14159 4.22701C7.80891 5.20548 7.28053 6.55577 6.83044 7.74951C6.28249 9.17808 5.85196 10.2935 5.85196 10.4501C5.85196 10.6262 5.94981 10.6849 6.36077 10.6849C6.81087 10.6849 7.00656 10.6067 7.0457 10.4501C7.80891 7.92563 9.92241 5.04892 11.0183 5.04892C11.3706 5.04892 11.488 5.16634 11.488 5.51859C11.488 6.08611 11.0183 7.14286 10.5486 8.16047C10.1377 9.06066 9.76586 9.90215 9.76586 10.3131C9.76586 10.6849 9.94198 10.8806 10.2551 10.8806C11.3314 10.8806 12.1533 9.90215 12.8187 9.11937L12.9165 9.00196L12.9361 8.96282L12.9165 8.92368L12.7013 8.64971C12.7013 8.64971 12.6817 8.63014 12.6621 8.63014C12.6426 8.63014 12.623 8.63014 12.623 8.64971C12.2512 9.0411 11.625 9.62818 11.4488 9.64775C11.3901 9.64775 11.3706 9.64775 11.351 9.62818C11.3314 9.60861 11.3314 9.5499 11.3314 9.45205C11.351 9.37378 11.4488 9.0998 11.625 8.70841C12.0359 7.71037 12.7208 6.06653 12.7208 5.06849C12.7208 4.28571 12.349 3.83562 11.6837 3.83562C10.3529 3.83562 9.29619 5.34247 8.78738 6.06654C8.66997 6.24266 8.55255 6.39922 8.53298 6.39922H8.51341C8.49384 6.36008 8.57212 6.20352 8.70911 5.89041C8.84609 5.55773 9.06136 5.04892 9.37447 4.28571C10.3725 1.70254 10.7835 0.313112 10.7835 0.195695C10.7835 0.0391389 10.6465 0.0195692 10.4899 0.0195692H8.43513V0ZM5.51928 9.25636C5.51928 9.23679 5.51928 9.21722 5.51928 9.19765L5.28445 8.96282C5.28445 8.94325 5.26488 8.94325 5.24531 8.94325C5.22574 8.94325 5.22574 8.94325 5.20617 8.96282L5.1866 8.98239C4.77564 9.35421 3.97329 10 3.26879 10.0587C2.99482 10.0783 2.74042 10 2.54472 9.82387C2.30989 9.60861 2.1729 9.2955 2.15333 8.88454C2.11419 7.80822 3.01439 6.20352 3.91459 5.24462C4.40382 4.73581 4.85392 4.46184 5.16703 4.46184C5.53885 4.46184 5.77369 4.73581 6.00852 5.00978C6.20421 5.24462 6.39991 5.47945 6.67388 5.47945C6.77173 5.47945 6.88915 5.42074 6.98699 5.34246C7.08484 5.24462 7.12398 5.10763 7.12398 4.97064C7.12398 4.52055 6.73259 3.85519 5.77369 3.83562C4.67779 3.81605 3.3275 4.48141 2.30989 5.51859C1.35099 6.51663 0.842179 7.6908 0.900888 8.8454C0.940027 9.8043 1.4684 10.8415 2.79913 10.8415C4.14942 10.8415 5.32359 9.62818 5.51928 9.25636ZM23.1318 6.79061C23.1122 6.84931 23.034 7.00587 23.0144 6.9863H22.9948V6.92759C22.9948 6.86888 23.0731 6.57534 23.1514 6.22309C23.3079 5.55773 23.5232 4.63796 23.5232 4.36399C23.5232 4.01174 23.3275 3.83562 22.9948 3.83562C22.2707 3.83562 21.1749 5.02935 20.803 5.65558L20.7835 5.67515C20.7835 5.69472 20.7835 5.69472 20.803 5.71429L21.0183 5.92955C21.0183 5.94912 21.0379 5.94912 21.0574 5.94912C21.077 5.94912 21.0966 5.92955 21.0966 5.92955L21.1553 5.85127L21.214 5.77299C21.4488 5.45988 21.9576 4.83366 22.2316 4.83366C22.3686 4.83366 22.4469 4.97065 22.4469 5.22505C22.4469 5.87084 21.7424 7.80822 21.2727 9.0998C21.0183 9.82387 20.8226 10.3522 20.8226 10.4501C20.8226 10.5871 20.8813 10.6458 20.9987 10.6458H21.6054C21.7228 10.6458 21.7815 10.5675 21.8598 10.3718C21.8598 10.3718 22.1533 9.66732 22.3295 9.31507C23.5232 6.86888 24.1886 5.61644 24.6974 5.1272C25.03 4.79452 25.2649 4.65753 25.441 4.65753C25.578 4.65753 25.6563 4.77495 25.7541 4.8728C25.852 4.99021 25.9498 5.10763 26.1259 5.1272C26.2434 5.1272 26.3608 5.08806 26.4586 5.00978C26.6152 4.8728 26.6935 4.61839 26.6935 4.36399C26.6935 3.91389 26.3803 3.75734 26.1064 3.75734C25.03 3.81605 24.2277 4.63796 23.1318 6.79061ZM19.3745 3.69863C19.4136 3.67906 19.4723 3.69863 19.531 3.73777C19.531 3.73777 19.5506 3.73777 19.5506 3.75734L19.9616 4.03131C20.0594 4.07045 20.0594 4.18787 20.0594 4.20744C20.0398 4.34442 19.7267 5.20548 19.3353 6.20352C18.8265 7.55382 18.1807 9.23679 18.1612 9.5499C18.1612 9.66732 18.1612 9.72603 18.2003 9.7456C18.2199 9.76517 18.259 9.78474 18.3177 9.78474C18.5525 9.78474 18.9439 9.2955 19.2571 8.92368L19.4919 8.63014C19.5115 8.61057 19.5506 8.61057 19.5702 8.63014L19.805 8.90411L19.8246 8.94325C19.8246 8.94325 19.805 8.98239 19.805 8.96282C19.4723 9.47162 18.5525 10.8219 17.4958 10.8415C17.3001 10.8415 17.1631 10.8023 17.0653 10.6849C16.9479 10.5675 16.8891 10.3914 16.8891 10.137C16.8891 9.62818 17.1435 9.06066 17.2805 8.76712L17.3588 8.57143C17.3784 8.53229 17.3784 8.51272 17.3588 8.49315H17.3392C17.3001 8.49315 17.0653 8.90411 17.0653 8.90411C15.9498 10.6067 15.0692 10.8219 14.4234 10.8219C13.895 10.8219 13.3862 10.3914 13.3862 9.43248C13.3862 8.02348 14.9713 3.95303 18.0046 3.95303C18.2786 3.95303 18.4743 3.99217 18.6308 4.03131C18.7482 4.05088 18.8461 4.07045 18.9439 4.07045C19.0614 4.07045 19.1201 3.9726 19.1788 3.87475C19.2179 3.81605 19.2766 3.73777 19.3745 3.69863ZM14.5604 9.11937C14.5604 9.68689 14.7169 9.78474 15.0105 9.78474C16.3412 9.78474 18.4938 6.0274 18.4938 5.22505C18.4938 4.69667 18.2003 4.40313 17.6915 4.40313C16.1259 4.40313 14.5604 7.14286 14.5604 9.11937ZM29.2179 8.92368C29.2179 6.45793 31.9772 3.83562 33.9146 3.83562C34.8343 3.83562 35.3236 4.40313 35.3236 4.93151C35.3236 6.22309 33.2101 6.77104 32.0751 6.77104L31.4293 6.75147C31.4293 6.75147 31.3314 6.75147 31.3118 6.75147C31.3118 6.77104 31.2727 6.81018 31.2727 6.81018C30.9596 7.27984 30.5486 7.92563 30.5486 8.78669C30.5486 9.49119 30.9792 9.94129 31.6641 9.94129C32.2316 9.94129 32.9948 9.37378 33.4058 9.06066L33.5819 8.94325C33.6015 8.92368 33.6406 8.92368 33.6602 8.94325L33.8559 9.19765C33.8754 9.21722 33.8754 9.23679 33.8559 9.25636C33.5428 9.66732 32.2316 10.8415 30.9987 10.8415C29.9616 10.8415 29.2179 10.0587 29.2179 8.92368ZM33.6993 4.26614C32.8578 4.26614 31.9576 5.63601 31.6445 6.20352C33.3275 6.18395 34.2864 5.67515 34.2864 4.85323C34.2864 4.52055 34.032 4.26614 33.6993 4.26614ZM28.6504 9.00196C28.67 8.98239 28.6504 8.94325 28.6504 8.94325C28.6504 8.92368 28.4156 8.64971 28.4156 8.64971C28.396 8.63014 28.396 8.63014 28.3764 8.63014C28.3569 8.63014 28.3373 8.63014 28.3373 8.64971L28.259 8.72798C27.6719 9.37378 27.3392 9.7456 27.0653 9.7456C27.0261 9.7456 26.987 9.7456 26.9479 9.70646C26.9087 9.66732 26.8891 9.58904 26.8891 9.51076C26.9087 9.13894 27.4958 7.4364 28.6895 4.30528L29.5506 2.05479C30.0007 0.880626 30.2355 0.293542 30.2355 0.215264C30.2355 0.156555 30.216 0.117417 30.1964 0.0978474C30.1572 0.0587084 30.079 0.0391383 29.9616 0.0391383H27.9263C27.8872 0.0391383 27.8676 0.0587084 27.8676 0.0978474L27.848 0.430528C27.848 0.450097 27.8676 0.489237 27.8872 0.489237L28.3373 0.528375C28.6308 0.587084 28.7482 0.665361 28.7287 0.861056C28.7091 1.1546 27.398 4.40313 27.398 4.40313C26.6935 6.16438 25.4997 9.19765 25.4801 9.92172C25.4606 10.2348 25.5388 10.4892 25.6954 10.6654C25.8324 10.8219 26.0477 10.8806 26.3021 10.8806C27.124 10.8806 27.9459 9.84344 28.4938 9.15851L28.6504 9.00196ZM0.900888 15.1272C0.900888 16.0861 1.6641 16.5949 2.38817 16.9863L2.70128 17.1429C3.44492 17.5147 3.73846 17.8865 3.73846 18.454C3.73846 19.0998 3.3275 19.5695 2.72085 19.5695C1.76194 19.5695 1.214 18.5714 0.979166 17.9648V17.9452L0.646484 18.0626V18.0822C0.744332 18.6888 0.861749 19.3542 0.940026 19.6086L1.09658 19.6673L1.52711 19.8239C1.82065 19.9217 2.1729 20 2.52515 20C3.87545 20 4.79521 19.1781 4.79521 17.9843C4.79521 16.8689 3.93416 16.3601 3.30793 16.0665L3.05353 15.9491C2.23161 15.5773 1.89893 15.2055 1.89893 14.6967C1.89893 14.1879 2.21204 13.6791 2.89697 13.6791C3.69932 13.6791 4.01243 14.3053 4.20813 14.9315V14.9511L4.56038 14.8924V14.8728C4.4821 14.3836 4.40382 13.953 4.36468 13.5421V13.5225L4.12985 13.4442L3.93416 13.3855C3.67975 13.2877 3.34707 13.2485 3.03396 13.2485C1.78151 13.229 0.900888 14.0117 0.900888 15.1272ZM5.53885 16.7123C5.53885 18.3366 6.67388 19.9804 9.19834 19.9804C9.84413 19.9804 10.7052 19.7847 11.0574 19.6869C11.2336 19.2955 11.4684 18.454 11.5662 18.0235V18.0039L11.2531 17.9452V17.9648C10.7443 19.002 10.2551 19.5695 9.17877 19.5695C7.78934 19.5695 6.85001 18.317 6.85001 16.4775C6.85001 15.1859 7.45666 13.6791 9.17877 13.6791C10.1964 13.6791 10.7443 14.1096 11.0183 15.1272V15.1468L11.3314 15.1076L11.2923 14.6575L11.1553 13.5029H11.1357L10.9596 13.4638C10.6269 13.3855 10.0594 13.2485 9.3549 13.2485C7.12398 13.229 5.53885 14.6575 5.53885 16.7123ZM18.9635 13.3659H16.1455V13.6791H16.1651C16.8891 13.7378 16.987 13.7769 16.987 14.8728V16.184H13.9929V14.8728C13.9929 13.7965 14.0907 13.7378 14.7952 13.6791H14.8148V13.3659H11.9576V13.6791H11.9772C12.8187 13.7378 12.8774 13.816 12.8774 14.8728V18.3366C12.8774 19.3738 12.8187 19.4716 12.0163 19.5303H11.9968V19.8434H14.8539V19.5303H14.8344C14.0907 19.4716 13.9929 19.4129 13.9929 18.3366V16.6732H16.9674V18.3366C16.9674 19.3933 16.9087 19.4716 16.0672 19.5303H16.0477V19.8434H18.9439V19.5303H18.9244C18.1807 19.4716 18.0829 19.4325 18.0829 18.3366V14.8728C18.0829 13.816 18.1416 13.7378 18.9244 13.6791H18.9439L18.9635 13.3659ZM28.8852 13.3659H26.5956V13.6791L26.9479 13.6986C27.1435 13.7182 27.2414 13.7573 27.3001 13.8356C27.3392 13.8748 27.3392 13.9335 27.3392 14.0313C27.3392 14.1292 27.3197 14.2857 27.261 14.4814C27.2414 14.5793 26.6935 16.7123 26.2629 18.1605C26.1846 17.9648 24.5408 13.4834 24.5408 13.4834V13.4638H24.1494C24.1494 13.4638 22.6817 18.0822 22.6621 18.1605C22.6034 17.9452 21.5075 14.3249 21.5075 14.3249C21.4684 14.1879 21.4488 14.0704 21.4488 13.9922C21.4488 13.9335 21.4684 13.8748 21.488 13.8552C21.5467 13.7769 21.6445 13.7378 21.8207 13.7182L22.1338 13.6986V13.6791V13.3855H19.4332V13.6986H19.4527C19.9811 13.7573 20.1377 13.816 20.4116 14.6575L22.0359 19.9413H22.5056C22.5056 19.9413 24.032 15.3816 24.032 15.3229C24.1103 15.5186 25.715 19.9217 25.715 19.9217V19.9413H26.1846V19.9217C27.1044 16.8689 27.848 14.7162 27.848 14.6967C28.1807 13.7965 28.259 13.7573 28.8657 13.6986H28.8852V13.3659ZM30.5682 14.9315C30.5682 14.9511 29.8246 17.0254 29.805 17.0646H31.3314C31.3118 17.0254 30.5878 14.9511 30.5682 14.9315ZM33.0731 18.5323C33.4058 19.4325 33.5623 19.4716 34.1103 19.5303H34.1298V19.8434H31.488V19.5303L31.7815 19.4912C31.9576 19.4716 32.0555 19.4325 32.0946 19.3738C32.1142 19.3542 32.1142 19.3151 32.1142 19.2759C32.1142 19.1977 32.0946 19.1194 32.0555 18.9824C31.9576 18.6888 31.7228 18.1018 31.5271 17.5734H29.7071C29.5897 17.8278 29.4527 18.2779 29.3158 18.6693L29.2571 18.8258C29.1983 19.002 29.1788 19.1194 29.1788 19.2172C29.1788 19.2759 29.1983 19.3151 29.2179 19.3542C29.2766 19.4325 29.3745 19.4716 29.5897 19.4912L29.8833 19.5303V19.8434H27.6524V19.5303H27.6719C28.2786 19.4521 28.3764 19.4129 28.7287 18.5323L30.7443 13.3464L31.1553 13.3072H31.1749L31.8402 15.1076L33.0731 18.5323ZM36.4978 16.184H36.8696C37.7502 16.184 38.2394 15.7534 38.2394 14.9706C38.2394 13.8748 37.3001 13.7769 37.0066 13.7769C36.6934 13.7769 36.576 13.816 36.5565 13.816C36.4782 13.8552 36.4782 14.0313 36.4782 14.2466V16.184H36.4978ZM37.3392 13.3659C38.0829 13.3659 38.4938 13.4442 38.8657 13.6986C39.2375 13.953 39.4332 14.3249 39.4332 14.8337C39.4332 15.7339 38.5526 16.1644 38.0633 16.2622C39.1592 16.4188 39.805 17.0254 39.805 17.9256C39.805 18.5714 39.5115 19.0607 38.9048 19.4325C38.4743 19.6869 37.7893 19.8239 37.0066 19.8239H34.5212V19.5108H34.5408C35.2844 19.4521 35.3823 19.3933 35.3823 18.317V14.8532C35.3823 13.7769 35.304 13.7182 34.5995 13.6595H34.5799V13.3464H34.5995H37.3392V13.3659ZM36.4978 16.5753V18.317C36.4978 18.8063 36.5369 19.1194 36.6935 19.2759C36.7913 19.3738 36.9479 19.4129 37.2414 19.4129C37.8676 19.4129 38.5526 19.0607 38.5526 18.0431C38.5526 17.1037 37.9263 16.5753 36.8304 16.5753H36.4978Z" fill="url(#paint0_linear_913_37208)"/>
<defs>
<linearGradient id="paint0_linear_913_37208" x1="20.2257" y1="0" x2="20.2257" y2="20" gradientUnits="userSpaceOnUse">
<stop stop-color="#DEE2E6"/>
<stop offset="1" stop-color="#F8F9FA"/>
</linearGradient>
</defs>
</svg>
